<svg xmlns="http://www.w3.org/2000/svg" xmlns:xlink="http://www.w3.org/1999/xlink" contentStyleType="text/css" data-diagram-type="MINDMAP" height="1481px" preserveAspectRatio="none" style="width:924px;height:1481px;background:#000000;" version="1.1" viewBox="0 0 924 1481" width="924px" zoomAndPan="magnify"><defs/><g><rect fill="#000000" height="52.5938" rx="12.5" ry="12.5" style="stroke:#FFB000;stroke-width:1.5;" width="181.6084" x="10" y="301.7813"/><text fill="#FFB000" font-family="sans-serif" font-size="14" lengthAdjust="spacing" textLength="161.6084" x="20" y="324.7764">alternativa "sin ciclos":</text><text fill="#FFB000" font-family="sans-serif" font-size="14" lengthAdjust="spacing" textLength="95.334" x="24.4502" y="341.0732">1 por pel&#237;cula</text><rect fill="#000000" height="36.2969" rx="12.5" ry="12.5" style="stroke:#FFB000;stroke-width:1.5;" width="95.2295" x="241.6084" y="217.0391"/><text fill="#FFB000" font-family="sans-serif" font-size="14" lengthAdjust="spacing" textLength="75.2295" x="251.6084" y="240.0342">flyer peli A</text><rect fill="#000000" height="36.2969" rx="12.5" ry="12.5" style="stroke:#FFB000;stroke-width:1.5;" width="132.9707" x="386.8379" y="20"/><text fill="#FFB000" font-family="sans-serif" font-size="14" lengthAdjust="spacing" textLength="112.9707" x="396.8379" y="42.9951">Veladas de Cine</text><path d="M336.8379,235.1875 L346.8379,235.1875 C361.8379,235.1875 361.8379,38.1484 376.8379,38.1484 L386.8379,38.1484 " fill="transparent" style="stroke:#00FFFF;stroke-width:1;"/><rect fill="#000000" height="36.2969" rx="12.5" ry="12.5" style="stroke:#FFB000;stroke-width:1.5;" width="87.2246" x="386.8379" y="76.2969"/><text fill="#FFB000" font-family="sans-serif" font-size="14" lengthAdjust="spacing" textLength="67.2246" x="396.8379" y="99.292">Ciclo ABC</text><rect fill="#000000" height="36.2969" rx="12.5" ry="12.5" style="stroke:#FFB000;stroke-width:1.5;" width="163.9717" x="524.0625" y="76.2969"/><text fill="#FFB000" font-family="sans-serif" font-size="14" lengthAdjust="spacing" textLength="143.9717" x="534.0625" y="99.292">Descripci&#243;n del ciclo</text><path d="M474.0625,94.4453 L484.0625,94.4453 C499.0625,94.4453 499.0625,94.4453 514.0625,94.4453 L524.0625,94.4453 " fill="transparent" style="stroke:#00FFFF;stroke-width:1;"/><path d="M336.8379,235.1875 L346.8379,235.1875 C361.8379,235.1875 361.8379,94.4453 376.8379,94.4453 L386.8379,94.4453 " fill="transparent" style="stroke:#00FFFF;stroke-width:1;"/><rect fill="#000000" height="36.2969" rx="12.5" ry="12.5" style="stroke:#FFB000;stroke-width:1.5;" width="29.5771" x="386.8379" y="245.1875"/><text fill="#FFB000" font-family="sans-serif" font-size="14" lengthAdjust="spacing" textLength="9.5771" x="396.8379" y="268.1826">A</text><rect fill="#000000" height="36.2969" rx="12.5" ry="12.5" style="stroke:#FFB000;stroke-width:1.5;" width="104.0205" x="466.415" y="245.1875"/><text fill="#FFB000" font-family="sans-serif" font-size="14" lengthAdjust="spacing" textLength="84.0205" x="476.415" y="268.1826">Datos Peli A</text><rect fill="#000000" height="36.2969" rx="12.5" ry="12.5" style="stroke:#FFB000;stroke-width:1.5;" width="59.2588" x="620.4355" y="132.5938"/><text fill="#FFB000" font-family="sans-serif" font-size="14" lengthAdjust="spacing" textLength="39.2588" x="630.4355" y="155.5889">T&#237;tulo</text><path d="M570.4355,263.3359 L580.4355,263.3359 C595.4355,263.3359 595.4355,150.7422 610.4355,150.7422 L620.4355,150.7422 " fill="transparent" style="stroke:#00FFFF;stroke-width:1;"/><rect fill="#000000" height="36.2969" rx="12.5" ry="12.5" style="stroke:#FFB000;stroke-width:1.5;" width="76.5469" x="620.4355" y="188.8906"/><text fill="#FFB000" font-family="sans-serif" font-size="14" lengthAdjust="spacing" textLength="56.5469" x="630.4355" y="211.8857">Director</text><path d="M570.4355,263.3359 L580.4355,263.3359 C595.4355,263.3359 595.4355,207.0391 610.4355,207.0391 L620.4355,207.0391 " fill="transparent" style="stroke:#00FFFF;stroke-width:1;"/><rect fill="#000000" height="36.2969" rx="12.5" ry="12.5" style="stroke:#FFB000;stroke-width:1.5;" width="47.0156" x="620.4355" y="245.1875"/><text fill="#FFB000" font-family="sans-serif" font-size="14" lengthAdjust="spacing" textLength="27.0156" x="630.4355" y="268.1826">A&#241;o</text><path d="M570.4355,263.3359 L580.4355,263.3359 C595.4355,263.3359 595.4355,263.3359 610.4355,263.3359 L620.4355,263.3359 " fill="transparent" style="stroke:#00FFFF;stroke-width:1;"/><rect fill="#000000" height="36.2969" rx="12.5" ry="12.5" style="stroke:#FFB000;stroke-width:1.5;" width="67.0381" x="620.4355" y="301.4844"/><text fill="#FFB000" font-family="sans-serif" font-size="14" lengthAdjust="spacing" textLength="47.0381" x="630.4355" y="324.4795">Origen</text><path d="M570.4355,263.3359 L580.4355,263.3359 C595.4355,263.3359 595.4355,319.6328 610.4355,319.6328 L620.4355,319.6328 " fill="transparent" style="stroke:#00FFFF;stroke-width:1;"/><rect fill="#000000" height="36.2969" rx="12.5" ry="12.5" style="stroke:#FFB000;stroke-width:1.5;" width="71.7002" x="620.4355" y="357.7813"/><text fill="#FFB000" font-family="sans-serif" font-size="14" lengthAdjust="spacing" textLength="51.7002" x="630.4355" y="380.7764">Rese&#241;a</text><path d="M570.4355,263.3359 L580.4355,263.3359 C595.4355,263.3359 595.4355,375.9297 610.4355,375.9297 L620.4355,375.9297 " fill="transparent" style="stroke:#00FFFF;stroke-width:1;"/><path d="M416.415,263.3359 L426.415,263.3359 C441.415,263.3359 441.415,263.3359 456.415,263.3359 L466.415,263.3359 " fill="transparent" style="stroke:#00FFFF;stroke-width:1;"/><rect fill="#000000" height="36.2969" rx="12.5" ry="12.5" style="stroke:#FFB000;stroke-width:1.5;" width="107.4727" x="466.415" y="301.4844"/><text fill="#FFB000" font-family="sans-serif" font-size="14" lengthAdjust="spacing" textLength="87.4727" x="476.415" y="324.4795">P&#243;ster Peli A</text><path d="M416.415,263.3359 L426.415,263.3359 C441.415,263.3359 441.415,319.6328 456.415,319.6328 L466.415,319.6328 " fill="transparent" style="stroke:#00FFFF;stroke-width:1;"/><path d="M336.8379,235.1875 L346.8379,235.1875 C361.8379,235.1875 361.8379,263.3359 376.8379,263.3359 L386.8379,263.3359 " fill="transparent" style="stroke:#00FFFF;stroke-width:1;"/><rect fill="#000000" height="36.2969" rx="12.5" ry="12.5" style="stroke:#FFB000;stroke-width:1.5;" width="86.083" x="386.8379" y="414.0781"/><text fill="#FFB000" font-family="sans-serif" font-size="14" lengthAdjust="spacing" textLength="66.083" x="396.8379" y="437.0732">Backdrop</text><rect fill="#000000" height="36.2969" rx="12.5" ry="12.5" style="stroke:#FFB000;stroke-width:1.5;" width="238.6201" x="522.9209" y="414.0781"/><text fill="#FFB000" font-family="sans-serif" font-size="14" lengthAdjust="spacing" textLength="218.6201" x="532.9209" y="437.0732">podr&#237;a ser el mismo para todas</text><path d="M472.9209,432.2266 L482.9209,432.2266 C497.9209,432.2266 497.9209,432.2266 512.9209,432.2266 L522.9209,432.2266 " fill="transparent" style="stroke:#00FFFF;stroke-width:1;"/><path d="M336.8379,235.1875 L346.8379,235.1875 C361.8379,235.1875 361.8379,432.2266 376.8379,432.2266 L386.8379,432.2266 " fill="transparent" style="stroke:#00FFFF;stroke-width:1;"/><path d="M191.6084,328.0781 L201.6084,328.0781 C216.6084,328.0781 216.6084,235.1875 231.6084,235.1875 L241.6084,235.1875 " fill="transparent" style="stroke:#00FFFF;stroke-width:1;"/><rect fill="#000000" height="36.2969" rx="12.5" ry="12.5" style="stroke:#FFB000;stroke-width:1.5;" width="95.2568" x="241.6084" y="470.375"/><text fill="#FFB000" font-family="sans-serif" font-size="14" lengthAdjust="spacing" textLength="75.2568" x="251.6084" y="493.3701">flyer peli B</text><rect fill="#000000" height="36.2969" rx="12.5" ry="12.5" style="stroke:#FFB000;stroke-width:1.5;" width="69.0547" x="386.8652" y="470.375"/><text fill="#FFB000" font-family="sans-serif" font-size="14" lengthAdjust="spacing" textLength="49.0547" x="396.8652" y="493.3701">&#237;dem A</text><path d="M336.8652,488.5234 L346.8652,488.5234 C361.8652,488.5234 361.8652,488.5234 376.8652,488.5234 L386.8652,488.5234 " fill="transparent" style="stroke:#00FFFF;stroke-width:1;"/><path d="M191.6084,328.0781 L201.6084,328.0781 C216.6084,328.0781 216.6084,488.5234 231.6084,488.5234 L241.6084,488.5234 " fill="transparent" style="stroke:#00FFFF;stroke-width:1;"/><rect fill="#000000" height="36.2969" rx="12.5" ry="12.5" style="stroke:#FFB000;stroke-width:1.5;" width="95.4277" x="241.6084" y="526.6719"/><text fill="#FFB000" font-family="sans-serif" font-size="14" lengthAdjust="spacing" textLength="75.4277" x="251.6084" y="549.667">flyer peli C</text><rect fill="#000000" height="36.2969" rx="12.5" ry="12.5" style="stroke:#FFB000;stroke-width:1.5;" width="69.0547" x="387.0361" y="526.6719"/><text fill="#FFB000" font-family="sans-serif" font-size="14" lengthAdjust="spacing" textLength="49.0547" x="397.0361" y="549.667">&#237;dem A</text><path d="M337.0361,544.8203 L347.0361,544.8203 C362.0361,544.8203 362.0361,544.8203 377.0361,544.8203 L387.0361,544.8203 " fill="transparent" style="stroke:#00FFFF;stroke-width:1;"/><path d="M191.6084,328.0781 L201.6084,328.0781 C216.6084,328.0781 216.6084,544.8203 231.6084,544.8203 L241.6084,544.8203 " fill="transparent" style="stroke:#00FFFF;stroke-width:1;"/><text fill="#00FF00" font-family="sans-serif" font-size="14" lengthAdjust="spacing" textLength="30.502" x="244.6084" y="605.2607">pros</text><text fill="#00FF00" font-family="sans-serif" font-size="14" lengthAdjust="spacing" textLength="105.9434" x="332.5605" y="586.9639">p&#243;ster grandes</text><path d="M279.5605,600.4141 L289.5605,600.4141 C304.5605,600.4141 304.5605,582.1172 319.5605,582.1172 L329.5605,582.1172 " fill="transparent" style="stroke:#00FFFF;stroke-width:1;"/><text fill="#00FF00" font-family="sans-serif" font-size="14" lengthAdjust="spacing" textLength="147.1846" x="332.5605" y="605.2607">backdrop espec&#237;ficos</text><path d="M279.5605,600.4141 L289.5605,600.4141 C304.5605,600.4141 304.5605,600.4141 319.5605,600.4141 L329.5605,600.4141 " fill="transparent" style="stroke:#00FFFF;stroke-width:1;"/><text fill="#00FF00" font-family="sans-serif" font-size="14" lengthAdjust="spacing" textLength="507.876" x="332.5605" y="623.5576">se puede distribuir cada semana la que corresponde y reducir confusi&#243;n</text><path d="M279.5605,600.4141 L289.5605,600.4141 C304.5605,600.4141 304.5605,618.7109 319.5605,618.7109 L329.5605,618.7109 " fill="transparent" style="stroke:#00FFFF;stroke-width:1;"/><path d="M191.6084,328.0781 L201.6084,328.0781 C216.6084,328.0781 216.6084,600.4141 231.6084,600.4141 L241.6084,600.4141 " fill="transparent" style="stroke:#00FFFF;stroke-width:1;"/><text fill="#FF0000" font-family="sans-serif" font-size="14" lengthAdjust="spacing" textLength="52.2539" x="244.6084" y="641.8545">contras</text><text fill="#FF0000" font-family="sans-serif" font-size="14" lengthAdjust="spacing" textLength="246.4014" x="354.3125" y="641.8545">hay que distribuir muchos archivos</text><path d="M301.3125,637.0078 L311.3125,637.0078 C326.3125,637.0078 326.3125,637.0078 341.3125,637.0078 L351.3125,637.0078 " fill="transparent" style="stroke:#00FFFF;stroke-width:1;"/><path d="M191.6084,328.0781 L201.6084,328.0781 C216.6084,328.0781 216.6084,637.0078 231.6084,637.0078 L241.6084,637.0078 " fill="transparent" style="stroke:#00FFFF;stroke-width:1;"/><rect fill="#000000" height="52.5938" rx="12.5" ry="12.5" style="stroke:#FFB000;stroke-width:1.5;" width="182.5723" x="10" y="947.0859"/><text fill="#FFB000" font-family="sans-serif" font-size="14" lengthAdjust="spacing" textLength="162.5723" x="20" y="970.0811">alternativa "solo ciclo":</text><text fill="#FFB000" font-family="sans-serif" font-size="14" lengthAdjust="spacing" textLength="142.9941" x="24.4502" y="986.3779">1 con todas las pelis</text><rect fill="#000000" height="36.2969" rx="12.5" ry="12.5" style="stroke:#FFB000;stroke-width:1.5;" width="87.0469" x="242.5723" y="740.6016"/><text fill="#FFB000" font-family="sans-serif" font-size="14" lengthAdjust="spacing" textLength="67.0469" x="252.5723" y="763.5967">ciclo de 1</text><rect fill="#000000" height="36.2969" rx="12.5" ry="12.5" style="stroke:#FFB000;stroke-width:1.5;" width="132.9707" x="379.6191" y="656.1563"/><text fill="#FFB000" font-family="sans-serif" font-size="14" lengthAdjust="spacing" textLength="112.9707" x="389.6191" y="679.1514">Veladas de Cine</text><path d="M329.6191,758.75 L339.6191,758.75 C354.6191,758.75 354.6191,674.3047 369.6191,674.3047 L379.6191,674.3047 " fill="transparent" style="stroke:#00FFFF;stroke-width:1;"/><rect fill="#000000" height="36.2969" rx="12.5" ry="12.5" style="stroke:#FFB000;stroke-width:1.5;" width="163.0693" x="379.6191" y="712.4531"/><text fill="#FFB000" font-family="sans-serif" font-size="14" lengthAdjust="spacing" textLength="143.0693" x="389.6191" y="735.4482">Pseudo Ciclo (no va)</text><path d="M329.6191,758.75 L339.6191,758.75 C354.6191,758.75 354.6191,730.6016 369.6191,730.6016 L379.6191,730.6016 " fill="transparent" style="stroke:#00FFFF;stroke-width:1;"/><rect fill="#000000" height="36.2969" rx="12.5" ry="12.5" style="stroke:#FFB000;stroke-width:1.5;" width="29.5771" x="379.6191" y="796.8984"/><text fill="#FFB000" font-family="sans-serif" font-size="14" lengthAdjust="spacing" textLength="9.5771" x="389.6191" y="819.8936">A</text><rect fill="#000000" height="36.2969" rx="12.5" ry="12.5" style="stroke:#FFB000;stroke-width:1.5;" width="104.0205" x="459.1963" y="768.75"/><text fill="#FFB000" font-family="sans-serif" font-size="14" lengthAdjust="spacing" textLength="84.0205" x="469.1963" y="791.7451">Datos Peli A</text><path d="M409.1963,815.0469 L419.1963,815.0469 C434.1963,815.0469 434.1963,786.8984 449.1963,786.8984 L459.1963,786.8984 " fill="transparent" style="stroke:#00FFFF;stroke-width:1;"/><rect fill="#000000" height="36.2969" rx="12.5" ry="12.5" style="stroke:#FFB000;stroke-width:1.5;" width="107.4727" x="459.1963" y="825.0469"/><text fill="#FFB000" font-family="sans-serif" font-size="14" lengthAdjust="spacing" textLength="87.4727" x="469.1963" y="848.042">P&#243;ster Peli A</text><path d="M409.1963,815.0469 L419.1963,815.0469 C434.1963,815.0469 434.1963,843.1953 449.1963,843.1953 L459.1963,843.1953 " fill="transparent" style="stroke:#00FFFF;stroke-width:1;"/><path d="M329.6191,758.75 L339.6191,758.75 C354.6191,758.75 354.6191,815.0469 369.6191,815.0469 L379.6191,815.0469 " fill="transparent" style="stroke:#00FFFF;stroke-width:1;"/><path d="M192.5723,973.3828 L202.5723,973.3828 C217.5723,973.3828 217.5723,758.75 232.5723,758.75 L242.5723,758.75 " fill="transparent" style="stroke:#00FFFF;stroke-width:1;"/><rect fill="#000000" height="36.2969" rx="12.5" ry="12.5" style="stroke:#FFB000;stroke-width:1.5;" width="87.0469" x="242.5723" y="1022.0859"/><text fill="#FFB000" font-family="sans-serif" font-size="14" lengthAdjust="spacing" textLength="67.0469" x="252.5723" y="1045.0811">ciclo de 2</text><rect fill="#000000" height="36.2969" rx="12.5" ry="12.5" style="stroke:#FFB000;stroke-width:1.5;" width="132.9707" x="379.6191" y="881.3438"/><text fill="#FFB000" font-family="sans-serif" font-size="14" lengthAdjust="spacing" textLength="112.9707" x="389.6191" y="904.3389">Veladas de Cine</text><path d="M329.6191,1040.2344 L339.6191,1040.2344 C354.6191,1040.2344 354.6191,899.4922 369.6191,899.4922 L379.6191,899.4922 " fill="transparent" style="stroke:#00FFFF;stroke-width:1;"/><rect fill="#000000" height="36.2969" rx="12.5" ry="12.5" style="stroke:#FFB000;stroke-width:1.5;" width="53.8174" x="379.6191" y="937.6406"/><text fill="#FFB000" font-family="sans-serif" font-size="14" lengthAdjust="spacing" textLength="33.8174" x="389.6191" y="960.6357">Ciclo</text><rect fill="#000000" height="36.2969" rx="12.5" ry="12.5" style="stroke:#FFB000;stroke-width:1.5;" width="163.9717" x="483.4365" y="937.6406"/><text fill="#FFB000" font-family="sans-serif" font-size="14" lengthAdjust="spacing" textLength="143.9717" x="493.4365" y="960.6357">Descripci&#243;n del ciclo</text><path d="M433.4365,955.7891 L443.4365,955.7891 C458.4365,955.7891 458.4365,955.7891 473.4365,955.7891 L483.4365,955.7891 " fill="transparent" style="stroke:#00FFFF;stroke-width:1;"/><path d="M329.6191,1040.2344 L339.6191,1040.2344 C354.6191,1040.2344 354.6191,955.7891 369.6191,955.7891 L379.6191,955.7891 " fill="transparent" style="stroke:#00FFFF;stroke-width:1;"/><rect fill="#000000" height="36.2969" rx="12.5" ry="12.5" style="stroke:#FFB000;stroke-width:1.5;" width="29.5771" x="379.6191" y="1022.0859"/><text fill="#FFB000" font-family="sans-serif" font-size="14" lengthAdjust="spacing" textLength="9.5771" x="389.6191" y="1045.0811">A</text><rect fill="#000000" height="36.2969" rx="12.5" ry="12.5" style="stroke:#FFB000;stroke-width:1.5;" width="104.0205" x="459.1963" y="993.9375"/><text fill="#FFB000" font-family="sans-serif" font-size="14" lengthAdjust="spacing" textLength="84.0205" x="469.1963" y="1016.9326">Datos Peli A</text><path d="M409.1963,1040.2344 L419.1963,1040.2344 C434.1963,1040.2344 434.1963,1012.0859 449.1963,1012.0859 L459.1963,1012.0859 " fill="transparent" style="stroke:#00FFFF;stroke-width:1;"/><rect fill="#000000" height="36.2969" rx="12.5" ry="12.5" style="stroke:#FFB000;stroke-width:1.5;" width="107.4727" x="459.1963" y="1050.2344"/><text fill="#FFB000" font-family="sans-serif" font-size="14" lengthAdjust="spacing" textLength="87.4727" x="469.1963" y="1073.2295">P&#243;ster Peli A</text><path d="M409.1963,1040.2344 L419.1963,1040.2344 C434.1963,1040.2344 434.1963,1068.3828 449.1963,1068.3828 L459.1963,1068.3828 " fill="transparent" style="stroke:#00FFFF;stroke-width:1;"/><path d="M329.6191,1040.2344 L339.6191,1040.2344 C354.6191,1040.2344 354.6191,1040.2344 369.6191,1040.2344 L379.6191,1040.2344 " fill="transparent" style="stroke:#00FFFF;stroke-width:1;"/><rect fill="#000000" height="36.2969" rx="12.5" ry="12.5" style="stroke:#FFB000;stroke-width:1.5;" width="29.6045" x="379.6191" y="1134.6797"/><text fill="#FFB000" font-family="sans-serif" font-size="14" lengthAdjust="spacing" textLength="9.6045" x="389.6191" y="1157.6748">B</text><rect fill="#000000" height="36.2969" rx="12.5" ry="12.5" style="stroke:#FFB000;stroke-width:1.5;" width="104.0479" x="459.2236" y="1106.5313"/><text fill="#FFB000" font-family="sans-serif" font-size="14" lengthAdjust="spacing" textLength="84.0479" x="469.2236" y="1129.5264">Datos Peli B</text><path d="M409.2236,1152.8281 L419.2236,1152.8281 C434.2236,1152.8281 434.2236,1124.6797 449.2236,1124.6797 L459.2236,1124.6797 " fill="transparent" style="stroke:#00FFFF;stroke-width:1;"/><rect fill="#000000" height="36.2969" rx="12.5" ry="12.5" style="stroke:#FFB000;stroke-width:1.5;" width="78.2148" x="459.2236" y="1162.8281"/><text fill="#FFB000" font-family="sans-serif" font-size="14" lengthAdjust="spacing" textLength="58.2148" x="469.2236" y="1185.8232">P&#243;ster B</text><path d="M409.2236,1152.8281 L419.2236,1152.8281 C434.2236,1152.8281 434.2236,1180.9766 449.2236,1180.9766 L459.2236,1180.9766 " fill="transparent" style="stroke:#00FFFF;stroke-width:1;"/><path d="M329.6191,1040.2344 L339.6191,1040.2344 C354.6191,1040.2344 354.6191,1152.8281 369.6191,1152.8281 L379.6191,1152.8281 " fill="transparent" style="stroke:#00FFFF;stroke-width:1;"/><path d="M192.5723,973.3828 L202.5723,973.3828 C217.5723,973.3828 217.5723,1040.2344 232.5723,1040.2344 L242.5723,1040.2344 " fill="transparent" style="stroke:#00FFFF;stroke-width:1;"/><rect fill="#000000" height="36.2969" rx="12.5" ry="12.5" style="stroke:#FFB000;stroke-width:1.5;" width="87.0469" x="242.5723" y="1078.3828"/><text fill="#FFB000" font-family="sans-serif" font-size="14" lengthAdjust="spacing" textLength="67.0469" x="252.5723" y="1101.3779">ciclo de 3</text><path d="M192.5723,973.3828 L202.5723,973.3828 C217.5723,973.3828 217.5723,1096.5313 232.5723,1096.5313 L242.5723,1096.5313 " fill="transparent" style="stroke:#00FFFF;stroke-width:1;"/><rect fill="#000000" height="36.2969" rx="12.5" ry="12.5" style="stroke:#FFB000;stroke-width:1.5;" width="87.0469" x="242.5723" y="1134.6797"/><text fill="#FFB000" font-family="sans-serif" font-size="14" lengthAdjust="spacing" textLength="67.0469" x="252.5723" y="1157.6748">ciclo de 4</text><path d="M192.5723,973.3828 L202.5723,973.3828 C217.5723,973.3828 217.5723,1152.8281 232.5723,1152.8281 L242.5723,1152.8281 " fill="transparent" style="stroke:#00FFFF;stroke-width:1;"/><text fill="#00FF00" font-family="sans-serif" font-size="14" lengthAdjust="spacing" textLength="30.502" x="245.5723" y="1223.1201">pros</text><text fill="#00FF00" font-family="sans-serif" font-size="14" lengthAdjust="spacing" textLength="210.8613" x="333.5244" y="1223.1201">se distribuye un &#250;nico archivo</text><path d="M280.5244,1218.2734 L290.5244,1218.2734 C305.5244,1218.2734 305.5244,1218.2734 320.5244,1218.2734 L330.5244,1218.2734 " fill="transparent" style="stroke:#00FFFF;stroke-width:1;"/><path d="M192.5723,973.3828 L202.5723,973.3828 C217.5723,973.3828 217.5723,1218.2734 232.5723,1218.2734 L242.5723,1218.2734 " fill="transparent" style="stroke:#00FFFF;stroke-width:1;"/><text fill="#FF0000" font-family="sans-serif" font-size="14" lengthAdjust="spacing" textLength="52.2539" x="245.5723" y="1268.8623">contras</text><text fill="#FF0000" font-family="sans-serif" font-size="14" lengthAdjust="spacing" textLength="107.7139" x="355.2764" y="1241.417">backdrop &#250;nico</text><path d="M302.2764,1264.0156 L312.2764,1264.0156 C327.2764,1264.0156 327.2764,1236.5703 342.2764,1236.5703 L352.2764,1236.5703 " fill="transparent" style="stroke:#00FFFF;stroke-width:1;"/><text fill="#FF0000" font-family="sans-serif" font-size="14" lengthAdjust="spacing" textLength="247.4883" x="355.2764" y="1259.7139">muy dif&#237;cil hacer entrar las rese&#241;as</text><path d="M302.2764,1264.0156 L312.2764,1264.0156 C327.2764,1264.0156 327.2764,1254.8672 342.2764,1254.8672 L352.2764,1254.8672 " fill="transparent" style="stroke:#00FFFF;stroke-width:1;"/><text fill="#FF0000" font-family="sans-serif" font-size="14" lengthAdjust="spacing" textLength="155.0527" x="355.2764" y="1278.0107">p&#243;sters muy chiquitos</text><path d="M302.2764,1264.0156 L312.2764,1264.0156 C327.2764,1264.0156 327.2764,1273.1641 342.2764,1273.1641 L352.2764,1273.1641 " fill="transparent" style="stroke:#00FFFF;stroke-width:1;"/><text fill="#FF0000" font-family="sans-serif" font-size="14" lengthAdjust="spacing" textLength="553.1777" x="355.2764" y="1296.3076">Hay que re-distribuir el mismo flyer cada semana, pudiendo generar confusi&#243;n</text><path d="M302.2764,1264.0156 L312.2764,1264.0156 C327.2764,1264.0156 327.2764,1291.4609 342.2764,1291.4609 L352.2764,1291.4609 " fill="transparent" style="stroke:#00FFFF;stroke-width:1;"/><path d="M192.5723,973.3828 L202.5723,973.3828 C217.5723,973.3828 217.5723,1264.0156 232.5723,1264.0156 L242.5723,1264.0156 " fill="transparent" style="stroke:#00FFFF;stroke-width:1;"/><rect fill="#000000" height="36.2969" rx="12.5" ry="12.5" style="stroke:#FFB000;stroke-width:1.5;" width="113.9121" x="10" y="1366.9063"/><text fill="#FFB000" font-family="sans-serif" font-size="14" lengthAdjust="spacing" textLength="93.9121" x="20" y="1389.9014">cosas sueltas</text><rect fill="#000000" height="36.2969" rx="12.5" ry="12.5" style="stroke:#FFB000;stroke-width:1.5;" width="349.2256" x="173.9121" y="1310.6094"/><text fill="#FFB000" font-family="sans-serif" font-size="14" lengthAdjust="spacing" textLength="329.2256" x="183.9121" y="1333.6045">datos de la peli ADENTRO o AFUERA del p&#243;ster</text><path d="M123.9121,1385.0547 L133.9121,1385.0547 C148.9121,1385.0547 148.9121,1328.7578 163.9121,1328.7578 L173.9121,1328.7578 " fill="transparent" style="stroke:#00FFFF;stroke-width:1;"/><rect fill="#000000" height="36.2969" rx="12.5" ry="12.5" style="stroke:#FFB000;stroke-width:1.5;" width="158.5166" x="173.9121" y="1366.9063"/><text fill="#FFB000" font-family="sans-serif" font-size="14" lengthAdjust="spacing" textLength="138.5166" x="183.9121" y="1389.9014">un solo aspect:ratio</text><path d="M123.9121,1385.0547 L133.9121,1385.0547 C148.9121,1385.0547 148.9121,1385.0547 163.9121,1385.0547 L173.9121,1385.0547 " fill="transparent" style="stroke:#00FFFF;stroke-width:1;"/><rect fill="#000000" height="36.2969" rx="12.5" ry="12.5" style="stroke:#FFB000;stroke-width:1.5;" width="431.2227" x="173.9121" y="1423.2031"/><text fill="#FFB000" font-family="sans-serif" font-size="14" lengthAdjust="spacing" textLength="411.2227" x="183.9121" y="1446.1982">prestar atenci&#243;n a costos de EDICI&#211;N vs de DISTRIBUCI&#211;N</text><path d="M123.9121,1385.0547 L133.9121,1385.0547 C148.9121,1385.0547 148.9121,1441.3516 163.9121,1441.3516 L173.9121,1441.3516 " fill="transparent" style="stroke:#00FFFF;stroke-width:1;"/><!--SRC=[dLNRRjD047ttLupWfOrewOs2GbGrbnPQKXgbQP-GgkbwdQwmTzsz14M8h-0xyb3nngj_ZDcrSwSLOX_YpCxPcTapP-nZOr7RJCWumpoA6iQEKtuKHTLEH-1GOmRV8w3LGlPrg9MJSLkbIjVXvKvOxuCNjLRVAgHVNI5vXMDZb2NeHnGUKiNyxz2NIN8t2-dNgPBsAT_p1Vq8lzkvLWkfV3Ws0oV92fYHM-CJU8-Uu-agKUFrbB2e1fXQhYLQCK9uOOG49bYgp8lw5mcxa2iDEK-B2NCfHhKQ9EcOXoq1JR9hSCDJZD40KTCcGi9UsuU0PgljhHfqk65Qv4mKloJXqZ95G3Oh15fbe3UBIbk3Oc9TYV80eJcpIbTcitYSUYwr679P6NrkUF68PT1UySlGtHR21kfZhV8IaAjO5nC4Go2gAXCcKv0ZCMaLNMdbkgqGePZ4F0lH5dtj9HyPjq0DDD1eqEFeo7jffwg7j2bZlkAygoe3RdBEYaaYsEfvmo5td7YEXR5Qt3cXWH7tvCXG8gG83uu3KrfJ44KvO0oQnuvve9A9Cw43yw2tK2h79oh_JNFTupW4MqYLENPF9Q5czsAabewioOYaLpQvaX4XIqwfI1Ce2-m6Y5VExfDIwXdkObKfQaCg6E7ciyfPR_iypTxpYlrljVvLQclOrZAsjLJQ_f9ry9I6pBmbOmvEGl5RabAcNVcdtiwaLfrTzMTkJ4aIcdcHaX2Odmxlrw5vkXonzR2Ll4quJzKyE67LEknZfIpDjnR4DHk_SgWMPFsAH1yBBaa4DEVSbx6avKKHqiXGOSRnr9RZ6mVsYL2QZVATrJdvFEXV0hsTJgzF-itGuAfoVu0O3U95FuMshadGllNK2Uw_EO2Mor8PwBDLqKywP-spukTd60MpStOrw9-rhiDU51rJyRDlLIz5QQylkZ0YgWIDnUxstixUc-sTZG6HSeuITjx2xa5z_qrz_n2Q_G5uzsQqyQ7NfTASPdC5K6roCpf76hc-arPal0wNEPVddK_J3JYH8w6LpAY3qVdDnHnmUB3L4XQkkAPAuEOYwl04NMhf15EnaCCwN0zEjzv5NPH3XqEAJQ_PDdssh1wJx-eF]--></g></svg>