<?xml version="1.0" encoding="UTF-8" standalone="no"?>
<svg
  width="1600"
  height="1000"
  viewBox="0 0 1600 1000"
  version="1.1"
  id="LogoBM"
  xml:space="preserve"
  xmlns="http://www.w3.org/2000/svg"
  xmlns:svg="http://www.w3.org/2000/svg">
  <defs id="defs1" />
  <g id="layer2" style="display:inline">
    <path
      style="display:inline;fill:#ca550b;fill-opacity:1;stroke-width:1"
      d="m 725.87378,989.63601 c -0.30923,-0.31496 -8.91442,-1.04573 -19.12264,-1.62395 -11.5244,-0.65274 -25.04648,-2.18186 -35.67015,-4.03358 -9.41035,-1.64024 -20.05361,-3.4822 -23.65169,-4.09311 -8.4893,-1.44144 -34.22624,-8.30287 -45.7937,-12.20864 -4.98195,-1.68207 -11.09617,-3.63687 -13.58714,-4.34399 -2.49098,-0.70709 -7.92584,-2.72162 -12.07746,-4.47674 -4.15163,-1.75513 -8.90713,-3.55645 -10.56778,-4.00296 -4.9033,-1.31837 -24.07376,-10.07528 -38.24529,-17.47014 -12.77847,-6.66794 -16.88102,-8.88495 -21.43147,-11.58155 -2.93049,-1.73661 -5.49882,-3.15748 -5.70739,-3.15748 -0.44198,0 -13.44119,-8.02163 -22.17744,-13.6854 -9.64469,-6.25269 -26.90228,-19.18421 -40.11598,-30.05981 -6.72082,-5.53161 -14.14452,-11.56555 -16.49711,-13.40875 -9.09412,-7.12506 -7.95079,-7.45607 31.95494,-9.25143 11.90133,-0.53545 27.245,-1.41853 34.09706,-1.96244 6.85205,-0.54389 27.00631,-1.43652 44.78725,-1.98362 17.78093,-0.54709 42.74578,-1.67582 55.47744,-2.50828 20.25629,-1.32446 47.27943,-3.02982 81.52285,-5.14471 9.38979,-0.57992 11.25692,-0.34558 27.84939,3.49528 9.78167,2.26428 19.19144,4.11687 20.91061,4.11687 1.71918,0 6.62378,0.85577 10.89914,1.90172 17.55061,4.29367 26.11916,6.14312 28.46134,6.14312 1.36102,0 8.58562,1.54517 16.05467,3.43371 7.46905,1.88855 15.84462,3.74867 18.61237,4.13359 2.76775,0.38494 12.3514,2.45993 21.29702,4.61112 8.9456,2.15118 17.2028,3.91124 18.34931,3.91124 1.14652,0 9.4526,1.80924 18.45795,4.02053 9.00536,2.21129 17.50565,4.02617 18.88952,4.03308 1.38388,0.007 9.74557,1.81782 18.58152,4.02429 8.83596,2.20647 17.2147,4.01228 18.61942,4.01291 1.40473,6.3e-4 9.80051,1.80335 18.65732,4.00606 8.8568,2.2027 17.12964,4.01228 18.3841,4.02126 1.25444,0.009 7.82156,1.38796 14.59359,3.06434 6.77203,1.6764 16.16247,3.70232 20.86765,4.50205 26.0282,4.42402 31.8166,6.76705 25.9162,10.49047 -11.89821,7.50834 -46.73194,25.60326 -58.12276,30.19279 -3.04453,1.22668 -7.34712,3.05972 -9.56132,4.07341 -2.2142,1.01369 -5.15808,2.15424 -6.54196,2.53454 -1.38387,0.38031 -5.68647,2.06708 -9.56132,3.74836 -3.87485,1.68128 -9.08326,3.6323 -11.57423,4.3356 -2.49098,0.7033 -8.15229,2.66946 -12.58069,4.36924 -4.4284,1.69987 -9.1839,3.08759 -10.56778,3.08408 -1.38388,0 -5.23357,0.87899 -8.55487,1.96143 -18.47708,6.02166 -51.6892,12.30025 -78.40013,14.8211 -16.26715,1.53536 -72.07741,3.02677 -73.13036,1.95439 z m 636.64172,-17.2813 c -3.3213,-0.74225 -11.0207,-2.30918 -17.1097,-3.48202 -6.0891,-1.17273 -13.7885,-2.83389 -17.1098,-3.69136 -3.3213,-0.85748 -8.7561,-1.93173 -12.0774,-2.38715 -3.3213,-0.45543 -10.1149,-1.72048 -15.0968,-2.81123 -4.982,-1.09073 -12.6814,-2.70155 -17.1098,-3.57959 -4.4284,-0.87802 -12.3542,-2.46646 -17.6129,-3.52984 -5.2588,-1.06339 -14.9962,-2.92946 -21.6388,-4.14682 -6.6426,-1.21737 -17.0594,-3.30835 -23.1485,-4.64663 -6.089,-1.33829 -16.0529,-3.30763 -22.142,-4.37634 -11.0193,-1.93401 -21.1564,-4.03536 -31.7033,-6.57184 -3.0446,-0.7322 -8.0265,-1.61822 -11.071,-1.96895 -5.4663,-0.62971 -18.4215,-3.29771 -29.1872,-6.01084 -3.0446,-0.76728 -8.7059,-1.84519 -12.5807,-2.39541 -3.8749,-0.55019 -12.4801,-2.17066 -19.1227,-3.60103 -6.6426,-1.43038 -15.7007,-3.24083 -20.1291,-4.02323 -4.4284,-0.78241 -12.3542,-2.36213 -17.6129,-3.51049 -5.2588,-1.14836 -13.4109,-2.77123 -18.1162,-3.60635 -11.7501,-2.08556 -27.5668,-5.42682 -34.2194,-7.22888 -3.0446,-0.8247 -8.6623,-1.89705 -12.48384,-2.38303 -3.82158,-0.48598 -9.93579,-1.58583 -13.58714,-2.44411 -3.65135,-0.85828 -9.43815,-2.21672 -12.85956,-3.01874 -3.42141,-0.80202 -9.52339,-1.92623 -13.55996,-2.49823 -7.74279,-1.09719 -17.4901,-3.10957 -27.52269,-5.68217 -3.3213,-0.85166 -10.11487,-2.13023 -15.09682,-2.84127 -4.98195,-0.71104 -15.17231,-2.69192 -22.64524,-4.40199 -7.47293,-1.71005 -14.63916,-3.11664 -15.92495,-3.12573 -1.28579,-0.009 -6.04129,-0.89234 -10.56777,-1.96272 -15.52647,-3.67156 -26.35198,-5.90483 -31.81524,-6.56339 -3.008,-0.36259 -10.93383,-1.95367 -17.61297,-3.53573 -6.67913,-1.58208 -15.31422,-3.33189 -19.18907,-3.88849 -3.87485,-0.5566 -12.48004,-2.20306 -19.12264,-3.65879 -6.64261,-1.45572 -14.56844,-3.10436 -17.61297,-3.66365 -8.73111,-1.60392 -20.09579,-3.92374 -26.67105,-5.44424 -3.32131,-0.76803 -9.20907,-1.88694 -13.08392,-2.48647 -6.89986,-1.06754 -20.49861,-3.91117 -31.89548,-6.66961 -5.81857,-1.40831 -15.4539,-1.13305 -58.18224,1.66214 -14.22126,0.93031 -59.72799,3.21248 -99.13582,4.97167 -12.73166,0.56835 -29.71559,1.48131 -37.74207,2.02881 -37.75121,2.57507 -65.01635,4.13303 -88.56804,5.06089 -14.11553,0.55611 -41.51627,1.91225 -60.89053,3.01363 -130.86811,7.43963 -123.29073,7.49817 -123.29073,-0.9526 0,-5.74386 1.29221,-6.2649 17.88546,-7.21163 34.18152,-1.95025 50.84371,-3.02384 83.26326,-5.36487 18.82071,-1.35904 44.18338,-2.95981 56.36148,-3.55727 12.17811,-0.59744 27.89197,-1.53159 34.91969,-2.07588 22.08186,-1.71021 55.67497,-3.90242 83.33878,-5.4385 14.66908,-0.81452 33.01172,-1.95861 40.76143,-2.54243 35.9634,-2.70925 70.25418,-5.14075 78.50349,-5.56654 4.98195,-0.25715 18.79555,-0.94462 30.69688,-1.52772 29.28055,-1.43456 26.72076,-0.11618 37.0032,-19.05788 7.02181,-12.93516 9.79703,-17.96375 13.31955,-24.1345 2.05219,-3.59504 5.21309,-9.25156 7.02421,-12.57005 1.81112,-3.31849 4.65608,-8.5225 6.32214,-11.56445 1.66605,-3.04195 4.3749,-8.01969 6.01968,-11.06165 1.64478,-3.04194 3.34687,-5.98334 3.78243,-6.53642 0.84806,-1.07687 4.42781,-7.62074 12.10229,-22.12329 4.78933,-9.05044 4.78933,-9.05044 4.24848,-38.46285 -0.42655,-23.19697 -0.83276,-29.65449 -1.92225,-30.55791 -1.55181,-1.28681 -4.67058,-1.9769 -21.97693,-4.86286 -25.38841,-4.23367 -29.33866,-5.44379 -26.21799,-8.03152 1.59164,-1.31982 5.98575,-0.77102 26.72122,3.33739 20.34131,4.0303 25.66928,4.71172 29.06427,3.71719 1.86983,-0.54776 8.6634,-1.27664 15.09683,-1.61976 17.87853,-0.95352 17.10249,-0.49778 25.59297,-15.02965 11.57059,-19.80362 10.0969,-22.64031 -9.36677,-18.02997 -7.85204,1.85992 -25.28164,5.06516 -37.74206,6.94062 -4.98196,0.74986 -14.94586,2.53387 -22.14201,3.96446 -7.19616,1.4306 -18.26702,3.30713 -24.60192,4.17008 -6.3349,0.86296 -11.83985,1.76775 -12.23322,2.01067 -0.39337,0.24291 -7.21225,1.58473 -15.15306,2.98181 -21.62576,3.80477 -36.45852,6.49709 -47.508,8.62324 -5.45692,1.05003 -11.28863,1.90914 -12.95932,1.90914 -1.67071,0 -6.94339,0.87112 -11.71709,1.93583 -4.77371,1.06471 -14.56722,2.91902 -21.76337,4.12069 -7.19616,1.20168 -16.70716,2.86568 -21.13556,3.69781 -4.4284,0.83212 -11.44842,2.11016 -15.60005,2.84009 -4.15163,0.72993 -9.58648,1.76976 -12.07746,2.31071 -2.49098,0.54096 -7.24648,1.26862 -10.56778,1.61699 -3.3213,0.34839 -8.98261,1.27427 -12.58069,2.05753 -11.44506,2.49145 -28.60098,5.56445 -31.03795,5.55957 -1.29469,-0.003 -11.3869,1.80536 -22.42712,4.0177 -11.04022,2.21232 -21.44487,4.02241 -23.12145,4.02241 -1.67659,0 -7.2096,0.87995 -12.29559,1.95546 -18.59695,3.93259 -30.44854,6.10904 -33.21302,6.09933 -1.55661,-0.005 -7.21792,0.93129 -12.58068,2.08169 -5.36276,1.1504 -13.82662,2.96363 -18.80858,4.02938 -4.98195,1.06574 -10.41681,1.94402 -12.07746,1.95172 -1.66065,0.008 -5.96324,0.67964 -9.56132,1.4932 -8.25995,1.86767 -28.36957,5.30488 -38.24529,6.53704 -4.15162,0.51799 -11.17165,1.67683 -15.60005,2.57519 -4.4284,0.89837 -12.12778,2.4532 -17.10973,3.45519 -13.68894,2.75315 -23.04316,3.45797 -24.32078,1.83252 -3.95625,-5.03332 -1.30296,-9.26867 6.70781,-10.70746 3.04453,-0.54682 8.02648,-1.46783 11.07101,-2.0467 3.04453,-0.57887 12.32907,-2.26216 20.63233,-3.74065 8.30325,-1.47848 17.33033,-3.31178 20.06015,-4.07401 2.72984,-0.76222 6.80134,-1.38586 9.04777,-1.38586 4.12303,0 17.8349,-2.64477 31.85114,-6.1435 4.18932,-1.04573 9.22536,-1.90133 11.19118,-1.90133 3.68502,0 23.24331,-3.85964 33.0243,-6.51703 3.04453,-0.82716 7.17475,-1.50931 9.17827,-1.51587 3.62022,-0.0119 25.81003,-4.26 31.58316,-6.04646 1.66065,-0.51387 6.86906,-1.40069 11.57423,-1.97071 4.70518,-0.57002 16.0278,-2.59485 25.16138,-4.49963 9.13358,-1.90479 19.55039,-3.93427 23.14846,-4.50994 9.02466,-1.44392 16.13397,-2.82686 26.16783,-5.0903 4.70518,-1.06139 11.04585,-2.20239 14.09037,-2.53555 3.04453,-0.33317 8.02648,-1.20722 11.07101,-1.94233 8.58265,-2.07229 25.87592,-5.37798 34.21947,-6.54118 10.63223,-1.48228 22.14592,-3.74844 25.46949,-5.01298 1.55333,-0.59101 6.94374,-1.54083 11.97867,-2.11072 8.64089,-0.97803 12.32185,-1.69874 28.72626,-5.6245 3.73646,-0.89417 9.9639,-1.98238 13.83875,-2.41823 3.87486,-0.43585 12.48005,-2.00452 19.12265,-3.48594 6.6426,-1.48143 15.47425,-3.14801 19.62587,-3.70352 4.15163,-0.55552 15.56256,-2.78045 25.35764,-4.94431 9.79507,-2.16387 19.21633,-3.9343 20.93612,-3.9343 3.7763,0 21.77012,-3.39546 32.27827,-6.09096 4.18932,-1.07463 9.02255,-1.95388 10.74049,-1.95388 1.71795,0 9.61293,-1.37927 17.54442,-3.06505 7.93149,-1.6858 17.13832,-3.50002 20.45962,-4.03162 14.36151,-2.29867 19.72822,-3.31775 29.69042,-5.63793 5.81228,-1.35367 14.19102,-2.87921 18.61942,-3.39012 8.32386,-0.96032 17.60314,-2.8002 30.76542,-6.10012 4.18932,-1.05031 8.94482,-1.90652 10.56778,-1.90268 2.74365,0.006 22.08711,-3.61729 59.81553,-11.20572 8.58003,-1.72573 18.31748,-3.55913 21.63878,-4.07422 14.40367,-2.23384 33.52708,-5.99758 37.23878,-7.32907 7.43,-2.66533 18.02,-1.97002 27.6845,1.81765 4.7013,1.84256 9.9067,3.6498 11.5673,4.01608 2.5902,0.57129 22.8694,6.84258 32.2065,9.95975 1.6606,0.55441 7.0955,2.32669 12.0775,3.93842 4.9819,1.61174 12.4548,4.11071 16.6065,5.55328 4.1516,1.44256 11.1716,3.64366 15.6,4.89132 4.4284,1.24767 10.5426,3.27487 13.5872,4.50488 3.0445,1.23002 8.4241,2.87687 11.9546,3.65968 3.5306,0.78281 7.1586,1.81869 8.0624,2.30196 2.7463,1.46852 13.449,5.1257 17.725,6.05675 2.2142,0.48211 8.3284,2.43925 13.5872,4.34918 5.2587,1.90994 11.3729,3.94138 13.5871,4.51429 2.2142,0.57294 8.102,2.43876 13.0839,4.14629 4.9819,1.70752 15.6252,5.1688 23.6517,7.69173 17.2629,5.42618 18.1162,6.13449 18.1162,15.03804 0,7.76647 -0.3799,7.95121 -10.0646,4.89397 -4.1516,-1.31059 -8.0313,-2.38308 -8.6214,-2.38333 -0.5902,-2.4e-4 -6.478,-1.74618 -13.084,-3.87988 -19.9991,-6.4596 -34.9913,-11.07555 -38.1786,-11.75487 -1.6607,-0.35393 -5.2839,-1.46439 -8.0517,-2.46767 -2.7677,-1.00329 -8.6555,-2.81535 -13.0839,-4.02681 -4.4284,-1.21145 -13.4865,-3.90441 -20.1291,-5.98437 -6.6426,-2.07996 -15.4742,-4.79509 -19.6259,-6.03365 -11.4369,-3.41197 -18.403,-5.57844 -32.3044,-10.04686 -6.9733,-2.24143 -13.5316,-4.07534 -14.5742,-4.07534 -1.0425,0 -4.1687,-0.85115 -6.9473,-1.89144 -9.3964,-3.51818 -12.0828,-4.37854 -17.6324,-5.64723 -3.0444,-0.69599 -9.8666,-2.74871 -15.1603,-4.56159 -11.0731,-3.79205 -14.6062,-3.61096 -15.658,0.80253 -0.3604,1.51255 -1.236,3.88141 -1.9457,5.26411 -1.8477,3.59947 -8.613,22.14633 -9.1912,25.19731 -0.7119,3.75668 1.4606,5.15161 6.0509,3.88523 2.0443,-0.56398 6.9962,-1.44427 11.0042,-1.9562 4.008,-0.51191 9.6889,-1.41934 12.6244,-2.01651 9.7853,-1.99066 17.9156,0.0313 12.2684,3.05104 -1.1785,0.63016 -8.3392,1.77664 -15.9128,2.54776 -12.91,1.31446 -23.4346,2.88628 -27.6971,4.13646 -1.9348,0.56751 -7.7097,11.60049 -7.7111,14.73219 -4e-4,0.99609 -1.8124,6.0639 -4.0266,11.26177 -2.21421,5.19788 -4.02583,10.08996 -4.02583,10.87129 0,0.78132 -1.36615,4.43102 -3.03589,8.11045 -1.66975,3.67942 -3.6811,9.05914 -4.46968,11.95493 -0.78857,2.89579 -2.85229,8.65899 -4.58602,12.80711 -3.06313,7.32881 -5.25177,13.24115 -13.02894,35.19614 -2.05717,5.80737 -4.49308,12.00707 -5.41316,13.77712 -0.92008,1.77006 -1.67287,3.86691 -1.67287,4.65969 0,0.79279 -1.81162,5.79062 -4.02582,11.1063 -2.2142,5.3157 -4.02582,10.37088 -4.02582,11.23375 0,0.86288 -0.83587,3.46725 -1.8575,5.7875 -1.81494,4.122 -4.35404,10.67087 -8.45866,21.81672 -1.12025,3.04196 -2.88063,7.65106 -3.91196,10.24246 -1.03134,2.5914 -1.87516,5.27102 -1.87516,5.95472 0,1.45049 -4.89378,14.0006 -6.03599,15.47936 -0.42722,0.55308 -1.10483,2.53693 -1.50579,4.40856 -0.40097,1.87164 -1.57558,5.26555 -2.61026,7.54203 -1.03467,2.27649 -1.89116,5.19899 -1.90332,6.49447 -0.0122,1.29546 -0.92791,3.50597 -2.03501,4.91223 -1.1071,1.40625 -2.01291,3.19941 -2.01291,3.9848 0,0.78539 -0.82568,3.32636 -1.83487,5.6466 -7.75784,17.83655 -8.9439,16.5245 19.74758,21.84535 21.69315,4.02299 36.30611,6.85644 44.4875,8.62608 3.59808,0.77826 9.48584,1.83452 13.08392,2.34723 3.59806,0.51271 14.69426,2.54438 24.65816,4.51483 23.9075,4.72792 28.0652,5.51591 35.2258,6.67646 3.3213,0.5383 8.9826,1.70515 12.5807,2.59303 3.5981,0.88788 9.4859,1.97231 13.0839,2.40985 3.5981,0.43754 14.2414,2.37516 23.6517,4.30584 22.2112,4.55692 48.8515,9.74784 55.8583,10.88408 10.1502,1.64599 27.611,5.01107 33.213,6.40088 3.0445,0.75532 7.8,1.65791 10.5678,2.00573 2.7677,0.34785 14.0903,2.39849 25.1613,4.55702 28.377,5.53266 46.9284,9.01238 56.8648,10.66622 4.7051,0.78316 12.8574,2.28981 18.1161,3.34813 5.2588,1.05832 14.7698,2.8886 21.1356,4.0673 43.31,8.01928 46.3495,8.78062 48.0877,12.04504 3.3677,6.32436 -0.1787,23.80255 -4.67,23.01627 -0.3539,-0.0624 -3.3608,-0.72001 -6.6821,-1.46234 z M 889.98496,852.06627 c 0,-1.76117 -0.86508,-5.04195 -1.92239,-7.29063 -2.00955,-4.27386 -6.38269,-14.00778 -8.61363,-19.17257 -0.71672,-1.65924 -2.26255,-5.1784 -3.43519,-7.82033 -1.17264,-2.64193 -2.13207,-5.23261 -2.13207,-5.75704 0,-0.52443 -1.30418,-3.79861 -2.89818,-7.27595 -1.594,-3.47734 -3.59001,-8.35328 -4.43558,-10.83542 -0.84557,-2.48215 -3.16462,-8.07654 -5.15346,-12.43197 -1.98883,-4.35545 -3.61606,-8.4209 -3.61606,-9.03433 0,-0.61344 -1.76526,-4.96903 -3.9228,-9.6791 -2.15755,-4.71006 -5.11462,-11.50514 -6.5713,-15.10017 -1.45667,-3.59504 -3.31464,-7.81754 -4.12884,-9.38334 -0.81419,-1.5658 -1.48034,-3.47705 -1.48034,-4.24724 0,-0.77017 -1.56573,-4.61483 -3.47941,-8.54367 -1.91366,-3.92884 -3.75284,-8.12664 -4.08705,-9.32843 -0.3342,-1.20178 -2.3428,-6.25776 -4.46356,-11.2355 -2.12075,-4.97774 -5.06879,-11.99183 -6.55119,-15.58686 -1.48241,-3.59504 -3.09868,-7.44147 -3.5917,-8.54764 -1.20664,-2.70722 -7.76432,-18.89259 -10.18579,-25.1401 -1.07184,-2.76541 -3.28771,-7.87661 -4.92416,-11.3582 -1.63643,-3.4816 -2.97534,-6.73006 -2.97534,-7.21879 0,-2.6546 -3.35625,-4.12239 -7.91617,-3.46198 -7.74099,1.12111 -7.62198,0.98412 -18.27424,21.03337 -7.24821,13.64231 -9.03997,16.89504 -9.91262,17.99532 -0.48471,0.61113 -2.57645,4.27881 -4.64831,8.15038 -8.56281,16.00087 -12.02176,22.25561 -13.62473,24.63731 -10.66785,15.85025 -10.54028,15.07744 -10.54028,63.85585 0,39.55376 -0.19011,45.25219 -1.50968,45.25219 -1.30489,0 -1.58383,-5.04728 -2.05627,-37.20735 -0.30062,-20.46405 -0.6403,-37.32048 -0.75484,-37.45876 -0.11455,-0.13827 -1.00084,-0.24853 -1.96955,-0.24504 -1.89005,0.007 -2.66247,1.15738 -11.13514,16.58611 -3.03724,5.53083 -6.53059,11.86612 -7.76302,14.07845 -1.23241,2.21234 -3.95593,7.19008 -6.05225,11.06165 -2.09631,3.87158 -5.3225,9.42376 -7.16931,12.33818 -1.8468,2.91443 -3.35782,5.5506 -3.35782,5.85817 0,0.30758 -1.82949,3.68909 -4.06553,7.51449 -5.3403,9.13611 -3.47023,13.00492 6.28617,13.00492 1.70282,0 11.97693,1.75249 22.83133,3.89442 10.8544,2.14192 29.69918,5.76605 41.87729,8.05359 12.1781,2.28757 28.25622,5.34715 35.72915,6.79909 7.47293,1.45194 17.21038,3.2663 21.63878,4.03192 9.64729,1.66787 25.98939,4.86634 37.74206,7.38685 4.70518,1.00909 11.23253,2.14291 14.50522,2.51963 3.27269,0.3767 6.89592,1.06702 8.05164,1.53403 1.15571,0.46702 4.02614,0.87781 6.37873,0.91286 4.15009,0.0618 4.27743,-0.0316 4.27743,-3.13837 z m 15.06142,-12.82143 c 0.57302,-1.06981 1.04186,-2.83394 1.04186,-3.9203 0,-1.08636 1.34849,-4.53656 2.99664,-7.6671 1.64816,-3.13055 3.51512,-7.58857 4.14881,-9.90675 0.63369,-2.31817 2.90844,-8.34136 5.055,-13.38486 2.14656,-5.0435 3.90283,-9.71109 3.90283,-10.37242 0,-0.66134 0.86395,-3.32267 1.91989,-5.91408 1.05595,-2.59139 2.83401,-7.2005 3.95126,-10.24245 1.11724,-3.04196 3.83553,-10.28231 6.04062,-16.08966 7.87412,-20.73741 12.24315,-32.86942 12.24315,-33.99709 0,-1.05724 2.13907,-6.23518 5.72283,-13.85294 0.80227,-1.70534 1.84451,-4.64673 2.31607,-6.53642 0.47156,-1.88969 2.28892,-7.05596 4.03856,-11.48063 1.74964,-4.42466 3.56966,-9.40239 4.04447,-11.06164 0.47482,-1.65925 1.98159,-5.95821 3.34838,-9.55324 3.50464,-9.21817 9.2954,-24.83068 13.80039,-37.20735 7.81384,-21.4672 8.72294,-23.87798 9.44385,-25.04343 2.58007,-4.17113 -4.99937,-5.10392 -20.57254,-2.53185 -18.97339,3.13366 -35.92954,5.51298 -46.29693,6.49646 -5.81228,0.55139 -14.41747,1.64598 -19.12264,2.43243 -4.70518,0.78644 -15.5749,2.33736 -24.15492,3.44648 -8.58003,1.10913 -21.03491,2.74891 -27.67752,3.64397 -6.6426,0.89506 -16.8158,2.24573 -22.60709,3.00148 -14.8048,1.93199 -15.28207,2.86986 -8.64966,16.99712 1.84472,3.92932 3.69636,8.2755 4.11475,9.65821 0.4184,1.38271 2.01975,5.22915 3.55856,8.54764 3.57656,7.71297 9.7142,22.64743 12.02835,29.26804 0.9869,2.82345 2.28443,5.99111 2.88342,7.03924 1.09805,1.92143 10.30317,24.03716 12.72207,30.56539 0.71726,1.93578 2.93,7.08315 4.91721,11.43858 1.98719,4.35545 3.61308,8.34263 3.61308,8.86044 0,0.51779 1.73951,4.64712 3.86557,9.17628 2.12607,4.52917 4.18807,9.54023 4.58224,11.1357 0.39417,1.59546 2.2779,6.05718 4.18607,9.91494 1.90817,3.85777 3.4694,7.50038 3.4694,8.09472 0,0.59433 0.93584,3.14669 2.07965,5.67191 1.1438,2.52521 2.95542,6.52664 4.02582,8.89203 1.07039,2.36539 1.94617,4.82452 1.94617,5.46473 0,1.1582 1.9786,5.78608 6.57327,15.37465 1.32513,2.76541 2.64293,6.19893 2.92844,7.63005 0.56553,2.83469 4.19155,7.95681 5.63276,7.95681 0.49389,0 1.36683,-0.8753 1.93986,-1.94509 z M 744.68112,681.87603 c 0.36041,-1.14705 3.92561,-7.74208 7.92268,-14.6556 15.09963,-26.11711 16.40329,-31.14767 7.3358,-28.30739 -1.82046,0.57024 -6.93317,1.34919 -11.36157,1.731 -13.781,1.18817 -12.58069,-1.13399 -12.58069,24.33916 0,24.54349 0.41504,26.26636 5.21967,21.66713 1.54485,-1.47881 3.1037,-3.62725 3.46411,-4.7743 z m 50.69707,-54.31762 c 0,-0.79697 -0.42162,-1.7094 -0.93691,-2.0276 -1.19656,-0.7389 -2.4,1.14414 -1.57923,2.47106 0.9255,1.4962 2.51614,1.21586 2.51614,-0.44346 z m 45.29047,-4.15461 c 9.13358,-1.38747 17.28841,-2.72599 18.12184,-2.97449 0.83343,-0.24849 7.17409,-0.91102 14.09037,-1.4723 6.91627,-0.56127 16.19828,-1.69491 20.62668,-2.51921 18.96802,-3.53067 26.88629,-4.67491 38.74852,-5.59937 6.91938,-0.53925 15.97747,-1.64044 20.1291,-2.4471 4.15163,-0.80665 14.56844,-2.36052 23.14847,-3.45308 15.84454,-2.01757 19.12264,-3.29764 19.12264,-7.46731 0,-0.63008 1.81162,-5.5597 4.02582,-10.95472 2.2142,-5.395 4.0258,-10.47194 4.0258,-11.28207 0,-0.81014 0.9531,-3.3 2.118,-5.53304 4.5009,-8.62788 1.9414,-9.19552 -21.08798,-4.67694 -10.32463,2.02579 -20.02545,3.67511 -21.55737,3.66515 -1.53192,-0.0101 -6.96678,0.83861 -12.07747,1.88569 -15.37287,3.14961 -31.12738,6.01701 -36.46643,6.63705 -2.76775,0.32143 -8.20261,1.24714 -12.07746,2.05711 -15.90611,3.32496 -28.13903,5.49273 -31.08863,5.50918 -1.72196,0.0101 -6.30117,0.72363 -10.17602,1.58672 -9.87287,2.19911 -26.21907,5.14823 -39.23047,7.07782 -20.56994,3.05054 -21.33383,3.76492 -16.66399,15.5843 1.8288,4.62871 3.75259,9.61274 4.2751,11.07562 2.81661,7.8858 2.2185,7.82409 31.99348,3.30099 z m 664.76344,306.14517 c -1.6606,-0.53176 -6.869,-1.60273 -11.5742,-2.37991 -14.4451,-2.38599 -26.3203,-4.30961 -34.2195,-5.54306 -4.1516,-0.64828 -10.9452,-1.76901 -15.0968,-2.49052 -4.1516,-0.7215 -12.3039,-2.06942 -18.1162,-2.99537 -5.8123,-0.92593 -16.2291,-2.58617 -23.1485,-3.68939 -6.9193,-1.10321 -16.9703,-2.88126 -22.3355,-3.95118 -5.3652,-1.06994 -11.253,-1.94324 -13.0839,-1.94067 -3.2067,0.004 -13.2522,-1.70064 -26.9808,-4.5797 -3.598,-0.75458 -10.3916,-1.87853 -15.0968,-2.49768 -9.8688,-1.29864 -29.5149,-4.50717 -39.755,-6.49266 -3.8748,-0.75131 -9.989,-1.66257 -13.5871,-2.02503 -6.3453,-0.6392 -20.8337,-3.19603 -34.2195,-6.03885 -3.5981,-0.76415 -10.1652,-1.68467 -14.5936,-2.0456 -4.4284,-0.36094 -17.4703,-2.4221 -28.9822,-4.58036 -11.5117,-2.15827 -22.6079,-3.92503 -24.6581,-3.92613 -2.0502,-10e-4 -11.3184,-1.55425 -20.596,-3.45141 -9.2777,-1.89717 -20.6003,-3.75145 -25.1614,-4.12064 -4.5611,-0.36919 -15.9923,-2.2089 -25.4027,-4.08824 -9.4104,-1.87935 -20.0536,-3.69086 -23.6517,-4.02558 -6.7276,-0.62586 -27.6601,-4.31051 -39.2517,-6.90928 -3.5981,-0.80667 -8.8627,-1.48258 -11.6993,-1.502 -2.8365,-0.0194 -6.9229,-0.65775 -9.0809,-1.41847 -2.1579,-0.76072 -6.7447,-1.7103 -10.1928,-2.11015 -3.4483,-0.39986 -6.5217,-1.13502 -6.8302,-1.63369 -0.7371,-1.19146 6.4373,-1.16142 11.8725,0.0497 2.3605,0.52601 8.9171,1.45184 14.5702,2.0574 5.653,0.60558 13.3524,1.72539 17.1097,2.48848 3.7573,0.76309 10.4547,1.67466 14.8831,2.02571 9.1088,0.72208 30.9966,3.80883 43.7618,6.17156 4.6948,0.86894 13.0735,1.95093 18.6194,2.4044 5.5459,0.45347 18.0094,2.19585 27.6965,3.87193 9.6871,1.6761 22.9976,3.53596 29.5789,4.13302 6.5813,0.59708 12.2426,1.25504 12.5807,1.46213 1.5748,0.96463 33.5792,5.72537 44.461,6.61367 6.7082,0.54761 12.4949,1.17779 12.8592,1.40039 1.3372,0.81698 32.1071,5.54467 39.9142,6.1327 7.4288,0.55954 14.513,1.64117 39.4646,6.02559 5.0989,0.89599 13.9306,2.01138 19.6259,2.47866 9.6532,0.79202 18.6911,2.10161 38.5357,5.58384 4.4284,0.77708 11.2219,1.68812 15.0968,2.02452 3.8748,0.3364 12.7065,1.46206 19.6259,2.50145 21.0045,3.15522 39.9564,5.8686 56.3614,8.06936 8.5801,1.15103 19.0072,2.74617 23.1715,3.54474 4.1643,0.79859 9.0628,1.45197 10.8856,1.45197 5.8688,0 7.2076,1.40088 7.2076,7.54203 0,7.26614 -2.7215,8.91486 -10.5678,6.4023 z M 1076.628,825.01265 c -1.5835,-2.56022 1.9821,-3.34048 16.9119,-3.70073 10.6082,-0.25597 15.9971,-0.78877 17.4474,-1.72507 2.1986,-1.41939 3.4371,-61.59364 3.4371,-167.00216 0,-40.51685 1.4588,-37.3153 -16.2735,-35.71371 -6.9656,0.62913 -14.0483,1.54037 -15.7395,2.02496 -3.496,1.00181 -7.5443,-1.0031 -5.7291,-2.83739 1.2524,-1.26568 19.3737,-4.17697 30.3271,-4.87222 7.3768,-0.46825 9.6129,-0.12028 22.6452,3.52388 7.9531,2.22389 16.4982,4.5381 18.9892,5.1427 2.491,0.60459 7.6994,2.01033 11.5743,3.12384 3.8748,1.11352 9.3097,2.51399 12.0774,3.11217 2.7678,0.59816 11.1695,2.85711 18.6705,5.01987 7.5011,2.16278 14.7728,3.93231 16.1595,3.93231 1.3867,0 5.2133,0.8614 8.5037,1.91424 3.2904,1.05284 9.8323,2.92049 14.5375,4.15032 4.7052,1.22985 11.4987,3.03998 15.0968,4.0225 13.2675,3.62303 22.7387,5.96624 26.2446,6.49298 8.1992,1.23194 7.5164,-7.18294 7.1135,87.67063 -0.234,55.09387 -0.7125,84.7356 -1.3812,85.5571 -1.3805,1.69586 -199.5645,1.85765 -200.6124,0.16378 z M 216.63213,800.90149 c -1.92719,-3.59794 0.23816,-4.67069 10.87931,-5.38981 9.31635,-0.62959 13.95922,-1.25309 41.99401,-5.63957 6.6426,-1.03933 17.51231,-2.15938 24.15492,-2.48896 6.6426,-0.3296 14.79489,-1.01918 18.11619,-1.5324 18.34175,-2.83425 43.53429,-5.96696 52.33565,-6.50797 5.53551,-0.34027 15.95232,-1.48095 23.14847,-2.53488 25.06608,-3.67108 36.32604,-5.0179 50.76548,-6.07212 7.99321,-0.5836 14.78678,-1.21733 15.09683,-1.40831 0.31004,-0.19098 5.09277,-0.88179 10.62827,-1.53513 5.5355,-0.65334 12.78198,-1.80456 16.10328,-2.55828 3.3213,-0.75372 12.3794,-1.64524 20.1291,-1.98118 7.74971,-0.33592 20.20459,-1.50994 27.67751,-2.60891 7.47293,-1.09898 17.88974,-2.63075 23.14847,-3.40393 5.25873,-0.7732 13.88254,-1.66169 19.16402,-1.97446 10.24947,-0.60696 46.86431,-5.22133 48.25749,-6.08164 0.45851,-0.28312 9.36696,-1.22483 19.79656,-2.09266 10.42961,-0.86783 21.05023,-1.81218 23.60136,-2.09856 3.63896,-0.40849 4.77071,-0.17628 5.25231,1.07768 1.92717,5.01786 -2.16387,6.33286 -25.34837,8.14782 -10.16233,0.79553 -21.03205,1.88061 -24.15492,2.41129 -3.12285,0.53065 -8.6218,1.2578 -12.21988,1.61588 -3.59808,0.35809 -9.25939,1.24982 -12.58069,1.98164 -3.3213,0.73183 -11.92649,1.63909 -19.12264,2.01616 -7.19616,0.37706 -16.0278,1.09995 -19.62587,1.60642 -27.88509,3.92512 -43.05587,5.82659 -50.82598,6.37042 -8.22266,0.5755 -19.01292,1.89158 -49.81953,6.07643 -5.81227,0.78956 -14.64392,1.70535 -19.62587,2.03508 -8.92005,0.5904 -20.97933,2.06318 -41.76788,5.10102 -5.81228,0.84935 -18.49361,2.18779 -28.18074,2.97433 -9.68713,0.78653 -18.51878,1.68116 -19.62588,1.98806 -4.23645,1.17439 -30.78661,4.5927 -43.78079,5.63674 -7.47292,0.60042 -21.51297,2.2275 -31.2001,3.61574 -15.57468,2.23197 -42.83458,5.17197 -49.02928,5.28785 -1.25276,0.0235 -2.71603,-0.86735 -3.34081,-2.03379 z m 6.32477,-54.89362 c -0.69194,-0.28486 -1.25807,-1.81004 -1.25807,-3.38932 0,-2.67503 0.32693,-2.91042 4.78066,-3.44201 8.74187,-1.04342 17.73963,-2.41937 29.94204,-4.57877 13.16255,-2.32929 14.13945,-2.46353 29.69042,-4.07991 5.81228,-0.60412 15.98868,-2.19364 22.61423,-3.53224 6.62555,-1.33861 17.04235,-2.91423 23.14847,-3.50138 10.55421,-1.01489 41.58494,-5.73279 42.85198,-6.51521 0.32839,-0.20278 5.5474,-0.86838 11.59783,-1.47911 12.19861,-1.23133 32.63877,-4.33155 42.7041,-6.47705 3.59808,-0.76695 10.39165,-1.6962 15.09683,-2.065 4.70518,-0.36879 16.25425,-2.00974 25.6646,-3.64656 9.41036,-1.63682 21.83919,-3.41862 27.61964,-3.95957 11.63763,-1.08906 31.78374,-4.37412 40.27592,-6.56747 3.02243,-0.78064 8.23084,-1.42814 11.57423,-1.43889 7.82889,-0.0252 34.73006,-3.95416 41.30481,-6.03266 1.66065,-0.52499 8.22777,-1.40191 14.5936,-1.94873 13.05195,-1.12114 34.95494,-4.46056 43.27757,-6.59828 6.97869,-1.79251 19.75172,-2.26976 21.22952,-0.7932 2.35322,2.35122 0.53899,4.80917 -4.12761,5.59221 -20.73612,3.47942 -49.0683,7.76966 -54.84398,8.30484 -7.33009,0.67921 -35.14632,5.17224 -37.68809,6.08758 -0.80065,0.28834 -6.23551,0.96206 -12.07746,1.49717 -12.40355,1.13613 -35.17792,4.49654 -43.83476,6.46792 -3.3213,0.75635 -9.88842,1.66452 -14.5936,2.01816 -4.70518,0.35363 -16.25425,2.00357 -25.6646,3.66652 -9.41036,1.66298 -22.9975,3.65217 -30.19365,4.42045 -7.19616,0.76828 -19.42459,2.52055 -27.17429,3.89392 -7.7497,1.37338 -20.0757,3.19354 -27.39111,4.04482 -7.31539,0.85127 -21.21819,2.91216 -30.89508,4.57977 -9.6769,1.66761 -19.14679,3.03201 -21.04421,3.03201 -3.22683,0 -16.18968,1.95401 -37.41838,5.64042 -4.98195,0.86513 -13.36069,2.02932 -18.61942,2.58709 -5.25872,0.55778 -18.16651,2.52872 -28.68396,4.37989 -19.81314,3.48729 -30.29155,4.72455 -32.45818,3.83259 z m 63.70556,-80.94612 c -0.25993,-0.74852 -1.89485,-5.43363 -3.63314,-10.41137 -3.20384,-9.17448 -3.62884,-10.57517 -7.01767,-23.1289 -1.04513,-3.87158 -2.82334,-10.27714 -3.9516,-14.23457 -1.12826,-3.95743 -2.05138,-8.15963 -2.05138,-9.33823 0,-1.17859 -0.87521,-5.85982 -1.94492,-10.40273 -3.72986,-15.8403 -5.25205,-25.46764 -6.63238,-41.94758 -0.76436,-9.12586 -1.8529,-21.11769 -2.41898,-26.64851 -3.19826,-31.24813 1.0765,-90.96808 9.04257,-126.32779 1.07455,-4.76967 1.95652,-9.74741 1.95995,-11.06165 0.003,-1.31423 1.40575,-7.14101 3.11627,-12.94837 1.71051,-5.80736 3.94353,-13.72649 4.96227,-17.59808 1.01872,-3.87157 2.81999,-9.75435 4.00282,-13.07285 1.18283,-3.31849 2.95355,-8.74875 3.93496,-12.06724 0.98139,-3.3185 3.16432,-9.20129 4.85094,-13.07286 16.03369,-36.80466 20.76577,-46.86102 27.44515,-58.32504 1.28899,-2.21233 3.99265,-6.96381 6.00814,-10.55884 26.38366,-47.06065 73.70701,-102.49829 115.76411,-135.61357 3.59808,-2.8331 8.12712,-6.43658 10.06455,-8.00776 7.45675,-6.04713 14.33366,-10.358 15.69247,-9.83702 1.21149,0.46451 1.41726,26.9837 1.41726,182.65542 0,128.52926 0.31997,182.70937 1.08747,184.14224 1.16843,2.18139 6.30645,4.7203 11.99645,5.92795 53.10395,11.27083 81.73965,11.73214 116.24555,1.87267 7.67005,-2.19158 8.32113,-2.43912 16.83502,-6.40073 22.80158,-10.60985 44.51421,-31.94639 51.54668,-50.65381 0.76324,-2.03035 2.74683,-7.31171 4.40799,-11.73637 6.54198,-17.42526 9.01635,-46.88652 5.74337,-68.38381 -0.92605,-6.0824 -2.0911,-13.80833 -2.58901,-17.16872 -0.4979,-3.36039 -2.31299,-9.46943 -4.0335,-13.57565 -1.72052,-4.10622 -3.3881,-8.3709 -3.70574,-9.47706 -4.03839,-14.06358 -26.11906,-37.27536 -40.88211,-42.97636 -19.44901,-7.51057 -17.78761,-7.19266 -37.89047,-7.25038 -22.92529,-0.0658 -32.85424,2.95959 -46.68812,14.22619 -8.1194,6.61261 -8.48281,6.85437 -9.21031,6.12749 -0.82901,-0.82832 -0.63961,-186.552477 0.20215,-198.212809 0.65398,-9.059115 3.78243,-13.761924 9.15488,-13.761924 0.71564,0 4.34697,-1.526292 8.06961,-3.39176 7.0075,-3.511547 29.43588,-12.697905 31.0018,-12.697905 1.04962,0 10.19387,-3.446062 16.30339,-6.144029 2.36739,-1.045442 5.12044,-1.900804 6.11787,-1.900804 0.99743,0 6.75985,-1.610411 12.80538,-3.578692 6.04552,-1.96828 13.93574,-4.012597 17.53382,-4.542928 3.59808,-0.530329 8.58003,-1.58856 11.07101,-2.351623 49.52206,-15.1701459 161.92463,-14.8858948 214.22932,0.541757 3.51799,1.037659 7.52383,1.886654 8.90185,1.886654 1.37802,0 5.74614,0.92875 9.70692,2.063887 14.79552,4.240313 21.43017,6.274212 26.32407,8.069837 2.76775,1.015515 8.65552,3.039159 13.08392,4.496985 4.4284,1.457826 10.91059,3.964778 14.40489,5.571004 3.49428,1.606225 7.57042,3.216783 9.05809,3.579014 2.3524,0.572786 9.30903,3.68355 15.78876,7.060189 1.1071,0.576918 6.08906,2.961727 11.07101,5.29957 9.52993,4.472052 10.65454,5.04057 16.49279,8.337464 1.99996,1.129403 6.58019,3.637622 10.17827,5.573811 8.65388,4.656843 35.54218,21.812328 41.26458,26.327952 2.491,1.96565 5.2941,4.02463 6.229,4.57548 19.8901,11.71875 71.5097,61.65475 94.591,91.50591 13.9304,18.01608 36.0579,50.10566 36.0579,52.29142 0,0.25506 1.5248,2.84827 3.3884,5.76269 9.7688,15.2769 32.8533,64.86208 37.345,80.21646 0.7281,2.48887 2.6685,8.37165 4.3121,13.07285 1.6435,4.7012 4.0231,12.39407 5.2879,17.09527 1.2649,4.7012 2.914,10.42332 3.6647,12.71582 0.7507,2.2925 2.0118,7.72275 2.8024,12.06724 0.7905,4.3445 2.6199,13.32934 4.0651,19.96632 1.4452,6.63699 3.2782,18.40256 4.0732,26.14571 0.7951,7.74315 1.9658,17.9249 2.6018,22.62609 2.1109,15.60485 1.4898,73.22405 -0.9948,92.28207 -1.1729,8.99742 -2.1327,17.97677 -2.1327,19.95411 0,4.72506 -3.8852,23.75211 -5.1016,24.98438 -0.6028,0.61063 -2.6904,0.47399 -5.7236,-0.37465 -2.6262,-0.73472 -6.36,-1.69459 -8.2974,-2.13304 -1.9375,-0.43845 -7.8252,-2.36087 -13.084,-4.27205 -5.2587,-1.9112 -11.3729,-3.93772 -13.5871,-4.50339 -2.2142,-0.56568 -7.1962,-2.23423 -11.071,-3.7079 -3.8749,-1.47366 -8.8568,-3.07398 -11.071,-3.55625 -2.2142,-0.48226 -7.1962,-2.08199 -11.071,-3.55494 -3.8749,-1.47294 -9.3097,-3.27904 -12.0775,-4.01354 -2.7677,-0.73452 -9.6545,-2.95495 -15.3039,-4.93432 -5.6496,-1.97937 -11.3233,-3.59886 -12.6084,-3.59886 -1.2851,0 -3.23,-0.59769 -4.3219,-1.3282 -1.0919,-0.73051 -5.8349,-2.55246 -10.5401,-4.04876 -4.7052,-1.49632 -14.4426,-4.58817 -21.6388,-6.87081 -7.1962,-2.28265 -18.0659,-5.83394 -24.1549,-7.89179 -27.8017,-9.39579 -34.6031,-11.31686 -37.9377,-10.7155 -1.8298,0.32999 -9.894,1.96554 -17.9205,3.63456 -8.02648,1.66903 -15.89041,3.04616 -17.47541,3.0603 -1.58499,0.0142 -6.56695,0.87624 -11.071,1.91579 -11.06156,2.55301 -27.38389,5.78632 -38.38285,7.60329 -4.98195,0.82298 -13.36069,2.45082 -18.61941,3.61743 -5.25873,1.16659 -12.50521,2.51939 -16.10328,3.00622 -3.59808,0.48683 -10.84456,1.78121 -16.10328,2.87643 -5.25873,1.0952 -13.41102,2.70467 -18.1162,3.57659 -4.70517,0.87193 -15.80134,3.00728 -24.65814,4.7452 -8.85681,1.73793 -19.04716,3.58894 -22.64524,4.11337 -3.59808,0.5244 -13.10908,2.29701 -21.13556,3.9391 -8.02647,1.6421 -17.53747,3.4409 -21.13555,3.99734 -9.19259,1.42164 -26.31503,4.85727 -35.13531,7.04995 -4.10178,1.0197 -8.99862,1.85399 -10.88185,1.85399 -3.33626,0 -14.63505,2.23112 -31.00925,6.12322 -4.44634,1.05689 -9.79608,1.92161 -11.88831,1.92161 -3.88985,0 -17.27706,2.63824 -30.97449,6.10418 -4.21822,1.06736 -9.7321,1.94065 -12.25306,1.94065 -4.75426,0 -18.0792,2.64552 -30.56495,6.06834 -3.96547,1.08708 -9.152,1.97649 -11.52563,1.97649 -2.37364,0 -8.18726,0.88542 -12.91918,1.96759 -21.23722,4.85687 -27.2898,6.07726 -30.14067,6.07726 -2.64714,0 -22.73466,4.04305 -34.82428,7.00915 -2.2142,0.54323 -5.78138,0.99849 -7.92705,1.01168 -3.66594,0.0226 -10.34849,1.33889 -30.87007,6.08081 -4.73192,1.09341 -10.05917,1.98802 -11.83834,1.98802 -1.77917,0 -11.65798,1.81008 -21.95292,4.02242 -10.29492,2.21233 -20.11811,4.02241 -21.8293,4.02241 -2.8858,0 -6.4563,0.7234 -29.98462,6.07506 -4.76299,1.08339 -10.11272,1.96978 -11.88831,1.96978 -3.48678,0 -19.42632,3.21629 -28.0626,5.66249 -2.93333,0.83085 -9.11524,1.9005 -13.73758,2.377 -4.62234,0.4765 -11.28045,1.5501 -14.79578,2.3858 -25.19004,5.98833 -40.69202,8.04564 -41.57017,5.5169 z M 767.70068,478.73199 c 14.45764,-1.71013 15.2365,-1.97378 17.23436,-5.83396 1.37631,-2.65924 1.52676,-12.0425 1.27849,-79.73851 -0.22828,-62.24855 -0.0316,-77.02527 1.04229,-78.31818 2.15711,-2.59696 24.96689,-2.28264 30.26317,0.41704 14.57743,7.43055 15.02634,10.20284 15.06696,93.04664 0.0265,54.05926 0.24835,63.69064 1.50844,65.48815 3.46399,4.94136 30.96091,7.55397 53.18192,5.05307 16.19272,-1.82243 18.41896,-2.53254 19.86656,-6.33681 2.33543,-6.13748 0.91826,-140.04496 -1.61191,-152.30857 -1.20556,-5.84322 1.54894,-7.04284 16.28287,-7.09144 14.5541,-0.048 17.11747,0.66912 23.36274,6.53597 8.56897,8.04976 9.10944,13.13253 9.69204,91.14599 0.45051,60.32816 0.51117,61.88484 2.47367,63.48341 7.89597,6.43172 66.11932,5.72623 71.12222,-0.8618 2.4357,-3.20741 1.9707,-133.42216 -0.5414,-151.61757 -2.4006,-17.38757 -6.1671,-27.62447 -14.8196,-40.27726 -7.3848,-10.79912 -24.43014,-24.17649 -33.3901,-26.20497 -1.46854,-0.33247 -5.16106,-1.41008 -8.20558,-2.39468 -14.61716,-4.72721 -55.46805,-7.24692 -64.09599,-3.95348 -1.5583,0.59482 -5.32425,1.52048 -8.36877,2.057 -7.40997,1.30583 -14.28822,3.51134 -21.90945,7.02527 -7.85363,3.62107 -9.07931,3.6163 -16.15546,-0.0627 -21.47054,-11.16313 -71.42323,-14.23935 -106.36139,-6.55 -6.6426,1.46193 -14.19987,3.03927 -16.79394,3.50521 -7.07027,1.26994 -23.04757,6.7888 -25.14539,8.68569 -2.08596,1.88616 -2.94651,204.46725 -0.89151,209.86775 2.00941,5.28067 31.89162,8.08043 55.91476,5.23883 z M 536.24067,428.06561 c -6.57674,-1.12061 -6.53733,-0.84959 -6.53371,-44.92835 0.005,-60.41809 2.56094,-69.91054 21.42757,-79.57769 12.1136,-6.20694 33.98691,-3.76734 44.06591,4.91478 19.18952,16.53002 20.79587,74.72597 2.78717,100.97529 -9.55713,13.93039 -38.33185,22.60563 -61.74694,18.61597 z"
      id="path2" />
  </g>
</svg>
