<?xml version="1.0" encoding="UTF-8" standalone="no"?>
<!-- Created with Inkscape (http://www.inkscape.org/) -->

<svg
   width="1080"
   height="160"
   viewBox="0 0 285.74999 42.333334"
   version="1.1"
   id="svg1"
   xml:space="preserve"
   inkscape:version="1.4.3 (0d15f75, 2025-12-25)"
   sodipodi:docname="tape.svg"
   xmlns:inkscape="http://www.inkscape.org/namespaces/inkscape"
   xmlns:sodipodi="http://sodipodi.sourceforge.net/DTD/sodipodi-0.dtd"
   xmlns="http://www.w3.org/2000/svg"
   xmlns:svg="http://www.w3.org/2000/svg"><sodipodi:namedview
     id="namedview1"
     pagecolor="#ffffff"
     bordercolor="#000000"
     borderopacity="0.25"
     inkscape:showpageshadow="2"
     inkscape:pageopacity="0.0"
     inkscape:pagecheckerboard="true"
     inkscape:deskcolor="#d1d1d1"
     inkscape:document-units="px"
     inkscape:zoom="1.0847363"
     inkscape:cx="447.11327"
     inkscape:cy="144.73563"
     inkscape:window-width="1920"
     inkscape:window-height="1121"
     inkscape:window-x="-9"
     inkscape:window-y="-9"
     inkscape:window-maximized="1"
     inkscape:current-layer="layer1" /><defs
     id="defs1" /><g
     inkscape:label="Capa 1"
     inkscape:groupmode="layer"
     id="layer1"><path
       style="display:inline;fill:#101010;fill-opacity:0.996078"
       d="M 142.875,42.333332 H 0 V 39.422915 36.512499 H 2.778125 5.55625 V 21.166666 5.8208332 H 2.778125 0 V 2.9104166 0 H 142.875 285.75 v 2.9104166 2.9104166 h -2.77813 -2.77812 V 21.166666 36.512499 h 2.77812 2.77813 v 2.910416 2.910417 z M 1.3229167,39.952082 h 0.79375 v -1.455208 -1.455208 h -0.79375 -0.79375003 v 1.455208 1.455208 z m 5.2916666,0 h 0.79375 v -1.455208 -1.455208 h -0.79375 -0.79375 v 1.455208 1.455208 z m 5.2916667,0 H 12.7 V 38.496874 37.041666 H 11.90625 11.1125 v 1.455208 1.455208 z m 5.291667,0 h 0.79375 v -1.455208 -1.455208 h -0.79375 -0.79375 v 1.455208 1.455208 z m 5.291666,0 h 0.79375 v -1.455208 -1.455208 h -0.79375 -0.79375 v 1.455208 1.455208 z m 5.291667,0 H 28.575 V 38.496874 37.041666 H 27.78125 26.9875 v 1.455208 1.455208 z m 5.291667,0 h 0.79375 v -1.455208 -1.455208 h -0.79375 -0.79375 v 1.455208 1.455208 z m 5.291666,0 h 0.79375 v -1.455208 -1.455208 h -0.79375 -0.79375 v 1.455208 1.455208 z m 5.291667,0 H 44.45 V 38.496874 37.041666 H 43.65625 42.8625 v 1.455208 1.455208 z m 5.291667,0 h 0.79375 v -1.455208 -1.455208 h -0.79375 -0.79375 v 1.455208 1.455208 z m 5.291666,0 h 0.79375 v -1.455208 -1.455208 h -0.79375 -0.79375 v 1.455208 1.455208 z m 5.291667,0 H 60.325 V 38.496874 37.041666 H 59.53125 58.7375 v 1.455208 1.455208 z m 5.291667,0 h 0.79375 v -1.455208 -1.455208 h -0.79375 -0.79375 v 1.455208 1.455208 z m 5.291666,0 h 0.79375 v -1.455208 -1.455208 h -0.79375 -0.79375 v 1.455208 1.455208 z m 5.291667,0 H 76.2 V 38.496874 37.041666 H 75.40625 74.6125 v 1.455208 1.455208 z m 5.291667,0 h 0.79375 v -1.455208 -1.455208 h -0.79375 -0.79375 v 1.455208 1.455208 z m 5.291666,0 h 0.79375 v -1.455208 -1.455208 h -0.79375 -0.79375 v 1.455208 1.455208 z m 5.291667,0 H 92.075 V 38.496874 37.041666 H 91.28125 90.4875 v 1.455208 1.455208 z m 5.291667,0 h 0.79375 v -1.455208 -1.455208 h -0.79375 -0.79375 v 1.455208 1.455208 z m 5.291663,0 h 0.79375 v -1.455208 -1.455208 h -0.79375 -0.79375 v 1.455208 1.455208 z m 5.29167,0 H 107.95 v -1.455208 -1.455208 h -0.79375 -0.79375 v 1.455208 1.455208 z m 5.29167,0 h 0.79375 v -1.455208 -1.455208 h -0.79375 -0.79375 v 1.455208 1.455208 z m 5.29166,0 h 0.79375 v -1.455208 -1.455208 h -0.79375 -0.79375 v 1.455208 1.455208 z m 5.29167,0 h 0.79375 v -1.455208 -1.455208 h -0.79375 -0.79375 v 1.455208 1.455208 z m 5.29167,0 h 0.79375 v -1.455208 -1.455208 h -0.79375 -0.79375 v 1.455208 1.455208 z m 5.29166,0 h 0.79375 v -1.455208 -1.455208 h -0.79375 -0.79375 v 1.455208 1.455208 z m 5.29167,0 H 139.7 v -1.455208 -1.455208 h -0.79375 -0.79375 v 1.455208 1.455208 z m 5.29167,0 h 0.79375 v -1.455208 -1.455208 h -0.79375 -0.79375 v 1.455208 1.455208 z m 5.29166,0 h 0.79375 v -1.455208 -1.455208 h -0.79375 -0.79375 v 1.455208 1.455208 z m 5.29167,0 h 0.79375 v -1.455208 -1.455208 h -0.79375 -0.79375 v 1.455208 1.455208 z m 5.29167,0 h 0.79375 v -1.455208 -1.455208 h -0.79375 -0.79375 v 1.455208 1.455208 z m 5.29166,0 h 0.79375 v -1.455208 -1.455208 h -0.79375 -0.79375 v 1.455208 1.455208 z m 5.29167,0 H 171.45 v -1.455208 -1.455208 h -0.79375 -0.79375 v 1.455208 1.455208 z m 5.29167,0 h 0.79375 v -1.455208 -1.455208 h -0.79375 -0.79375 v 1.455208 1.455208 z m 5.29166,0 h 0.79375 v -1.455208 -1.455208 h -0.79375 -0.79375 v 1.455208 1.455208 z m 5.29167,0 h 0.79375 v -1.455208 -1.455208 h -0.79375 -0.79375 v 1.455208 1.455208 z m 5.29167,0 h 0.79375 v -1.455208 -1.455208 h -0.79375 -0.79375 v 1.455208 1.455208 z m 5.29166,0 h 0.79375 v -1.455208 -1.455208 h -0.79375 -0.79375 v 1.455208 1.455208 z m 5.29167,0 H 203.2 v -1.455208 -1.455208 h -0.79375 -0.79375 v 1.455208 1.455208 z m 5.29167,0 h 0.79375 v -1.455208 -1.455208 h -0.79375 -0.79375 v 1.455208 1.455208 z m 5.29166,0 h 0.79375 v -1.455208 -1.455208 h -0.79375 -0.79375 v 1.455208 1.455208 z m 5.29167,0 h 0.79375 v -1.455208 -1.455208 h -0.79375 -0.79375 v 1.455208 1.455208 z m 5.29167,0 h 0.79375 v -1.455208 -1.455208 h -0.79375 -0.79375 v 1.455208 1.455208 z m 5.29166,0 h 0.79375 v -1.455208 -1.455208 h -0.79375 -0.79375 v 1.455208 1.455208 z m 5.29167,0 H 234.95 v -1.455208 -1.455208 h -0.79375 -0.79375 v 1.455208 1.455208 z m 5.29167,0 h 0.79375 v -1.455208 -1.455208 h -0.79375 -0.79375 v 1.455208 1.455208 z m 5.29166,0 h 0.79375 v -1.455208 -1.455208 h -0.79375 -0.79375 v 1.455208 1.455208 z m 5.29167,0 h 0.79375 v -1.455208 -1.455208 h -0.79375 -0.79375 v 1.455208 1.455208 z m 5.29167,0 h 0.79375 v -1.455208 -1.455208 h -0.79375 -0.79375 v 1.455208 1.455208 z m 5.29166,0 h 0.79375 v -1.455208 -1.455208 h -0.79375 -0.79375 v 1.455208 1.455208 z m 5.29167,0 H 266.7 v -1.455208 -1.455208 h -0.79375 -0.79375 v 1.455208 1.455208 z m 5.29167,0 h 0.79375 v -1.455208 -1.455208 h -0.79375 -0.79375 v 1.455208 1.455208 z m 5.29166,0 h 0.79375 v -1.455208 -1.455208 h -0.79375 -0.79375 v 1.455208 1.455208 z m 5.29167,0 h 0.79375 v -1.455208 -1.455208 h -0.79375 -0.79375 v 1.455208 1.455208 z M 25.4,36.512499 H 44.714583 V 21.166666 5.8208332 H 25.4 6.0854167 V 21.166666 36.512499 Z m 39.158333,0 H 83.872917 V 21.166666 5.8208332 H 64.558333 45.24375 V 21.166666 36.512499 Z m 39.158337,0 h 19.31458 V 21.166666 5.8208332 H 103.71667 84.402083 V 21.166666 36.512499 Z m 39.15833,0 h 19.31458 V 21.166666 5.8208332 H 142.875 123.56042 V 21.166666 36.512499 Z m 39.15833,0 h 19.31459 V 21.166666 5.8208332 H 182.03333 162.71875 V 21.166666 36.512499 Z m 39.15834,0 h 19.31458 V 21.166666 5.8208332 H 221.19167 201.87708 V 21.166666 36.512499 Z m 39.15833,0 h 19.31458 V 21.166666 5.8208332 H 260.35 241.03542 V 21.166666 36.512499 Z M 1.3229167,5.2916665 h 0.79375 V 3.8364582 2.3812499 h -0.79375 -0.79375003 v 1.4552083 1.4552083 z m 5.2916666,0 h 0.79375 V 3.8364582 2.3812499 h -0.79375 -0.79375 v 1.4552083 1.4552083 z m 5.2916667,0 H 12.7 V 3.8364582 2.3812499 H 11.90625 11.1125 v 1.4552083 1.4552083 z m 5.291667,0 h 0.79375 V 3.8364582 2.3812499 h -0.79375 -0.79375 v 1.4552083 1.4552083 z m 5.291666,0 h 0.79375 V 3.8364582 2.3812499 h -0.79375 -0.79375 v 1.4552083 1.4552083 z m 5.291667,0 H 28.575 V 3.8364582 2.3812499 H 27.78125 26.9875 v 1.4552083 1.4552083 z m 5.291667,0 h 0.79375 V 3.8364582 2.3812499 h -0.79375 -0.79375 v 1.4552083 1.4552083 z m 5.291666,0 h 0.79375 V 3.8364582 2.3812499 h -0.79375 -0.79375 v 1.4552083 1.4552083 z m 5.291667,0 H 44.45 V 3.8364582 2.3812499 H 43.65625 42.8625 v 1.4552083 1.4552083 z m 5.291667,0 h 0.79375 V 3.8364582 2.3812499 h -0.79375 -0.79375 v 1.4552083 1.4552083 z m 5.291666,0 h 0.79375 V 3.8364582 2.3812499 h -0.79375 -0.79375 v 1.4552083 1.4552083 z m 5.291667,0 H 60.325 V 3.8364582 2.3812499 H 59.53125 58.7375 v 1.4552083 1.4552083 z m 5.291667,0 h 0.79375 V 3.8364582 2.3812499 h -0.79375 -0.79375 v 1.4552083 1.4552083 z m 5.291666,0 h 0.79375 V 3.8364582 2.3812499 h -0.79375 -0.79375 v 1.4552083 1.4552083 z m 5.291667,0 H 76.2 V 3.8364582 2.3812499 H 75.40625 74.6125 v 1.4552083 1.4552083 z m 5.291667,0 h 0.79375 V 3.8364582 2.3812499 h -0.79375 -0.79375 v 1.4552083 1.4552083 z m 5.291666,0 h 0.79375 V 3.8364582 2.3812499 h -0.79375 -0.79375 v 1.4552083 1.4552083 z m 5.291667,0 H 92.075 V 3.8364582 2.3812499 H 91.28125 90.4875 v 1.4552083 1.4552083 z m 5.291667,0 h 0.79375 V 3.8364582 2.3812499 h -0.79375 -0.79375 v 1.4552083 1.4552083 z m 5.291663,0 h 0.79375 V 3.8364582 2.3812499 h -0.79375 -0.79375 v 1.4552083 1.4552083 z m 5.29167,0 H 107.95 V 3.8364582 2.3812499 h -0.79375 -0.79375 v 1.4552083 1.4552083 z m 5.29167,0 h 0.79375 V 3.8364582 2.3812499 h -0.79375 -0.79375 v 1.4552083 1.4552083 z m 5.29166,0 h 0.79375 V 3.8364582 2.3812499 h -0.79375 -0.79375 v 1.4552083 1.4552083 z m 5.29167,0 H 123.825 V 3.8364582 2.3812499 h -0.79375 -0.79375 v 1.4552083 1.4552083 z m 5.29167,0 h 0.79375 V 3.8364582 2.3812499 h -0.79375 -0.79375 v 1.4552083 1.4552083 z m 5.29166,0 h 0.79375 V 3.8364582 2.3812499 h -0.79375 -0.79375 v 1.4552083 1.4552083 z m 5.29167,0 H 139.7 V 3.8364582 2.3812499 h -0.79375 -0.79375 v 1.4552083 1.4552083 z m 5.29167,0 h 0.79375 V 3.8364582 2.3812499 h -0.79375 -0.79375 v 1.4552083 1.4552083 z m 5.29166,0 h 0.79375 V 3.8364582 2.3812499 h -0.79375 -0.79375 v 1.4552083 1.4552083 z m 5.29167,0 H 155.575 V 3.8364582 2.3812499 h -0.79375 -0.79375 v 1.4552083 1.4552083 z m 5.29167,0 h 0.79375 V 3.8364582 2.3812499 h -0.79375 -0.79375 v 1.4552083 1.4552083 z m 5.29166,0 h 0.79375 V 3.8364582 2.3812499 h -0.79375 -0.79375 v 1.4552083 1.4552083 z m 5.29167,0 H 171.45 V 3.8364582 2.3812499 h -0.79375 -0.79375 v 1.4552083 1.4552083 z m 5.29167,0 h 0.79375 V 3.8364582 2.3812499 h -0.79375 -0.79375 v 1.4552083 1.4552083 z m 5.29166,0 h 0.79375 V 3.8364582 2.3812499 h -0.79375 -0.79375 v 1.4552083 1.4552083 z m 5.29167,0 H 187.325 V 3.8364582 2.3812499 h -0.79375 -0.79375 v 1.4552083 1.4552083 z m 5.29167,0 h 0.79375 V 3.8364582 2.3812499 h -0.79375 -0.79375 v 1.4552083 1.4552083 z m 5.29166,0 h 0.79375 V 3.8364582 2.3812499 h -0.79375 -0.79375 v 1.4552083 1.4552083 z m 5.29167,0 H 203.2 V 3.8364582 2.3812499 h -0.79375 -0.79375 v 1.4552083 1.4552083 z m 5.29167,0 h 0.79375 V 3.8364582 2.3812499 h -0.79375 -0.79375 v 1.4552083 1.4552083 z m 5.29166,0 h 0.79375 V 3.8364582 2.3812499 h -0.79375 -0.79375 v 1.4552083 1.4552083 z m 5.29167,0 H 219.075 V 3.8364582 2.3812499 h -0.79375 -0.79375 v 1.4552083 1.4552083 z m 5.29167,0 h 0.79375 V 3.8364582 2.3812499 h -0.79375 -0.79375 v 1.4552083 1.4552083 z m 5.29166,0 h 0.79375 V 3.8364582 2.3812499 h -0.79375 -0.79375 v 1.4552083 1.4552083 z m 5.29167,0 H 234.95 V 3.8364582 2.3812499 h -0.79375 -0.79375 v 1.4552083 1.4552083 z m 5.29167,0 h 0.79375 V 3.8364582 2.3812499 h -0.79375 -0.79375 v 1.4552083 1.4552083 z m 5.29166,0 h 0.79375 V 3.8364582 2.3812499 h -0.79375 -0.79375 v 1.4552083 1.4552083 z m 5.29167,0 H 250.825 V 3.8364582 2.3812499 h -0.79375 -0.79375 v 1.4552083 1.4552083 z m 5.29167,0 h 0.79375 V 3.8364582 2.3812499 h -0.79375 -0.79375 v 1.4552083 1.4552083 z m 5.29166,0 h 0.79375 V 3.8364582 2.3812499 h -0.79375 -0.79375 v 1.4552083 1.4552083 z m 5.29167,0 H 266.7 V 3.8364582 2.3812499 h -0.79375 -0.79375 v 1.4552083 1.4552083 z m 5.29167,0 h 0.79375 V 3.8364582 2.3812499 h -0.79375 -0.79375 v 1.4552083 1.4552083 z m 5.29166,0 h 0.79375 V 3.8364582 2.3812499 h -0.79375 -0.79375 v 1.4552083 1.4552083 z m 5.29167,0 H 282.575 V 3.8364582 2.3812499 h -0.79375 -0.79375 v 1.4552083 1.4552083 z"
       id="path1"
       inkscape:label="tape" /></g></svg>
